<svg width="1920" height="300" viewBox="0 0 1920 300" fill="none" xmlns="http://www.w3.org/2000/svg">
<rect width="1920" height="300" fill="url(#paint0_linear_6_114)"/>
<g filter="url(#filter0_f_6_114)">
<circle cx="954.5" cy="149.5" r="133.5" fill="url(#paint1_linear_6_114)"/>
</g>
<mask id="mask0_6_114" style="mask-type:alpha" maskUnits="userSpaceOnUse" x="470" y="0" width="980" height="300">
<rect x="470" width="980" height="300" fill="url(#paint2_linear_6_114)"/>
</mask>
<g mask="url(#mask0_6_114)">
<path d="M711.079 171.508H672.169V125.64H661V171.508V290H1490V242.858H1411.1V82.3198H1373.27V242.858H1361.02V53.4399H1319.95V105.254H1299.41V160.89H1289.33V140.504H1278.88V160.89H1262.66V96.7597H1234.92V116.296H1216.55V186.372H1196.01V226.294H1156.02V53.4399H1147.74V39H1118.91V53.4399H1099.46V226.294H991.015V171.508H975.523V116.296H957.149V72.5516H930.488V116.296H916.077V171.508H903.827V226.294H864.917V171.508V72.5516H845.462V116.296H827.809V171.508H813.398V160.89H803.31V171.508H787.097V160.89H764.4V171.508H747.827V72.5516H711.079V171.508Z" fill="url(#paint3_linear_6_114)"/>
</g>
<mask id="mask1_6_114" style="mask-type:alpha" maskUnits="userSpaceOnUse" x="470" y="0" width="980" height="300">
<rect x="470" width="980" height="300" fill="url(#paint4_linear_6_114)"/>
</mask>
<g mask="url(#mask1_6_114)">
<path d="M1179.92 219.508H1218.83V173.64H1230V219.508V338H401V290.858H479.901V130.32H517.73V290.858H529.98V101.44H571.051V153.254H591.587V208.89H601.675V188.504H612.123V208.89H628.336V144.76H656.077V164.296H674.451V234.372H694.987V274.294H734.978V101.44H743.264V87H772.086V101.44H791.542V274.294H899.985V219.508H915.477V164.296H933.851V120.552H960.512V164.296H974.923V219.508H987.173V274.294H1026.08V219.508V120.552H1045.54V164.296H1063.19V219.508H1077.6V208.89H1087.69V219.508H1103.9V208.89H1126.6V219.508H1143.17V120.552H1179.92V219.508Z" fill="url(#paint5_linear_6_114)"/>
</g>
<mask id="mask2_6_114" style="mask-type:alpha" maskUnits="userSpaceOnUse" x="470" y="0" width="980" height="300">
<rect x="470" width="980" height="300" fill="url(#paint6_linear_6_114)"/>
</mask>
<g mask="url(#mask2_6_114)">
<path d="M803.877 204C695.955 204 538.992 229.739 474 242.608L479.797 374.98L1467.32 382C1473.12 331.692 1481.23 229.472 1467.32 223.054C1449.93 215.031 1378.26 204 1254.95 231.076C1131.65 258.152 938.778 204 803.877 204Z" fill="url(#paint7_linear_6_114)"/>
</g>
<mask id="mask3_6_114" style="mask-type:alpha" maskUnits="userSpaceOnUse" x="470" y="0" width="980" height="300">
<rect x="470" width="980" height="300" fill="url(#paint8_linear_6_114)"/>
</mask>
<g mask="url(#mask3_6_114)">
<path d="M732.833 257.491C635.601 262.623 518.924 247.547 513.454 246.906L446 236V338H1504V246.906C1437.76 260.698 1353.29 261.019 1175.24 246.906C997.181 232.792 830.064 252.358 732.833 257.491Z" fill="url(#paint9_linear_6_114)"/>
</g>
<g filter="url(#filter1_f_6_114)">
<circle cx="552.5" cy="29.5" r="2.5" fill="#99E5F2"/>
</g>
<g filter="url(#filter2_f_6_114)">
<circle cx="623.5" cy="88.5" r="2.5" fill="#99E5F2"/>
</g>
<g filter="url(#filter3_f_6_114)">
<circle cx="505.5" cy="108.5" r="2.5" fill="#99E5F2"/>
</g>
<g filter="url(#filter4_f_6_114)">
<circle cx="701.5" cy="113.5" r="2.5" fill="#99E5F2"/>
</g>
<g filter="url(#filter5_f_6_114)">
<circle cx="704.5" cy="38.5" r="2.5" fill="#99E5F2"/>
</g>
<g filter="url(#filter6_f_6_114)">
<circle cx="818.5" cy="56.5" r="2.5" fill="#99E5F2"/>
</g>
<g filter="url(#filter7_f_6_114)">
<circle cx="1146.5" cy="27.5" r="2.5" fill="#99E5F2"/>
</g>
<g filter="url(#filter8_f_6_114)">
<circle cx="1201.5" cy="95.5" r="2.5" fill="#99E5F2"/>
</g>
<g filter="url(#filter9_f_6_114)">
<circle cx="1274.5" cy="118.5" r="2.5" fill="#99E5F2"/>
</g>
<g filter="url(#filter10_f_6_114)">
<circle cx="1336.5" cy="25.5" r="2.5" fill="#99E5F2"/>
</g>
<g filter="url(#filter11_f_6_114)">
<circle cx="1431.5" cy="149.5" r="2.5" fill="#99E5F2"/>
</g>
<g filter="url(#filter12_f_6_114)">
<circle cx="1227.5" cy="43.5" r="2.5" fill="#99E5F2"/>
</g>
<rect x="731.308" y="226.11" width="25.4338" height="8.17392" rx="4.08696" transform="rotate(57.5476 731.308 226.11)" fill="black" stroke="white" stroke-width="2"/>
<path fill-rule="evenodd" clip-rule="evenodd" d="M689.959 236.287C691.41 234.558 691.185 231.98 689.457 230.529C687.728 229.077 685.15 229.302 683.699 231.031L675.105 241.269C674.362 242.154 674.058 243.262 674.171 244.327C674.145 245.39 674.532 246.461 675.333 247.282L681.823 253.923C683.4 255.537 685.988 255.567 687.602 253.99C689.216 252.412 689.246 249.825 687.669 248.21L683.517 243.961L689.959 236.287Z" fill="black"/>
<path d="M689.457 230.529L688.814 231.295V231.295L689.457 230.529ZM689.959 236.287L690.725 236.929L689.959 236.287ZM683.699 231.031L684.465 231.674L683.699 231.031ZM675.105 241.269L675.871 241.912H675.871L675.105 241.269ZM674.171 244.327L675.17 244.351L675.172 244.286L675.165 244.222L674.171 244.327ZM675.333 247.282L676.049 246.583H676.049L675.333 247.282ZM681.823 253.923L681.107 254.622L681.823 253.923ZM687.669 248.21L688.384 247.511L687.669 248.21ZM683.517 243.961L682.751 243.318L682.169 244.012L682.802 244.66L683.517 243.961ZM688.814 231.295C690.119 232.391 690.289 234.338 689.193 235.644L690.725 236.929C692.531 234.778 692.251 231.569 690.099 229.763L688.814 231.295ZM684.465 231.674C685.561 230.368 687.508 230.198 688.814 231.295L690.099 229.763C687.948 227.956 684.739 228.237 682.933 230.388L684.465 231.674ZM675.871 241.912L684.465 231.674L682.933 230.388L674.339 240.626L675.871 241.912ZM675.165 244.222C675.08 243.416 675.309 242.581 675.871 241.912L674.339 240.626C673.414 241.728 673.036 243.108 673.176 244.432L675.165 244.222ZM676.049 246.583C675.443 245.963 675.151 245.155 675.17 244.351L673.171 244.303C673.139 245.624 673.62 246.96 674.618 247.981L676.049 246.583ZM682.538 253.224L676.049 246.583L674.618 247.981L681.107 254.622L682.538 253.224ZM686.903 253.275C685.684 254.466 683.729 254.443 682.538 253.224L681.107 254.622C683.071 256.631 686.291 256.668 688.301 254.705L686.903 253.275ZM686.954 248.909C688.145 250.129 688.123 252.083 686.903 253.275L688.301 254.705C690.31 252.742 690.348 249.521 688.384 247.511L686.954 248.909ZM682.802 244.66L686.954 248.909L688.384 247.511L684.232 243.262L682.802 244.66ZM689.193 235.644L682.751 243.318L684.283 244.604L690.725 236.929L689.193 235.644Z" fill="white"/>
<path fill-rule="evenodd" clip-rule="evenodd" d="M721.036 159.137C721.843 159.017 722.671 158.954 723.516 158.954C731.923 158.954 738.738 165.168 738.738 172.833C738.738 175.297 738.033 177.612 736.798 179.618C741.675 182.378 745.006 187.927 745.006 194.323C745.006 200.553 741.845 205.98 737.174 208.808C739.806 211.786 741.424 215.832 741.424 220.29C741.424 229.439 734.609 236.855 726.202 236.855C723.539 236.855 721.036 236.111 718.859 234.804C716.125 239.223 711.486 242.13 706.222 242.13C701.795 242.13 697.809 240.073 695.027 236.79C692.745 238.276 690.075 239.13 687.222 239.13C678.815 239.13 672 231.714 672 222.565C672 218.777 673.169 215.286 675.135 212.495C670.849 209.168 668 203.276 668 196.562C668 190.148 670.599 184.484 674.568 181.091C672.691 178.783 671.582 175.926 671.582 172.833C671.582 165.168 678.397 158.954 686.804 158.954C687.648 158.954 688.476 159.017 689.283 159.137C692.463 153.673 698.382 150 705.16 150C711.937 150 717.857 153.673 721.036 159.137Z" fill="white"/>
<path d="M721.036 159.137L719.74 159.892L720.252 160.771L721.258 160.621L721.036 159.137ZM736.798 179.618L735.521 178.831L734.705 180.156L736.059 180.923L736.798 179.618ZM737.174 208.808L736.397 207.525L734.861 208.456L736.05 209.802L737.174 208.808ZM718.859 234.804L719.631 233.518L718.362 232.756L717.583 234.015L718.859 234.804ZM695.027 236.79L696.172 235.82L695.317 234.811L694.209 235.533L695.027 236.79ZM675.135 212.495L676.361 213.359L677.186 212.188L676.054 211.31L675.135 212.495ZM674.568 181.091L675.543 182.231L676.655 181.28L675.732 180.144L674.568 181.091ZM689.283 159.137L689.061 160.621L690.068 160.771L690.58 159.892L689.283 159.137ZM721.258 160.621C721.992 160.511 722.746 160.454 723.516 160.454V157.454C722.597 157.454 721.695 157.522 720.815 157.654L721.258 160.621ZM723.516 160.454C731.228 160.454 737.238 166.124 737.238 172.833H740.238C740.238 164.212 732.618 157.454 723.516 157.454V160.454ZM737.238 172.833C737.238 175.006 736.618 177.049 735.521 178.831L738.075 180.404C739.449 178.174 740.238 175.589 740.238 172.833H737.238ZM736.059 180.923C740.446 183.406 743.506 188.444 743.506 194.323H746.506C746.506 187.41 742.904 181.35 737.537 178.312L736.059 180.923ZM743.506 194.323C743.506 200.049 740.602 204.979 736.397 207.525L737.951 210.091C743.088 206.981 746.506 201.057 746.506 194.323H743.506ZM736.05 209.802C738.439 212.504 739.924 216.197 739.924 220.29H742.924C742.924 215.468 741.173 211.068 738.298 207.815L736.05 209.802ZM739.924 220.29C739.924 228.732 733.664 235.355 726.202 235.355V238.355C735.554 238.355 742.924 230.145 742.924 220.29H739.924ZM726.202 235.355C723.824 235.355 721.586 234.692 719.631 233.518L718.087 236.09C720.486 237.53 723.254 238.355 726.202 238.355V235.355ZM717.583 234.015C715.09 238.045 710.907 240.63 706.222 240.63V243.63C712.064 243.63 717.16 240.402 720.134 235.593L717.583 234.015ZM706.222 240.63C702.278 240.63 698.697 238.801 696.172 235.82L693.883 237.759C696.921 241.346 701.312 243.63 706.222 243.63V240.63ZM694.209 235.533C692.157 236.869 689.769 237.63 687.222 237.63V240.63C690.381 240.63 693.333 239.683 695.846 238.047L694.209 235.533ZM687.222 237.63C679.76 237.63 673.5 231.007 673.5 222.565H670.5C670.5 232.42 677.87 240.63 687.222 240.63V237.63ZM673.5 222.565C673.5 219.087 674.572 215.897 676.361 213.359L673.909 211.631C671.765 214.674 670.5 218.467 670.5 222.565H673.5ZM676.054 211.31C672.18 208.302 669.5 202.873 669.5 196.562H666.5C666.5 203.679 669.518 210.034 674.215 213.68L676.054 211.31ZM669.5 196.562C669.5 190.536 671.944 185.308 675.543 182.231L673.593 179.951C669.255 183.661 666.5 189.76 666.5 196.562H669.5ZM675.732 180.144C674.057 178.085 673.082 175.557 673.082 172.833H670.082C670.082 176.295 671.326 179.482 673.404 182.037L675.732 180.144ZM673.082 172.833C673.082 166.124 679.092 160.454 686.804 160.454V157.454C677.702 157.454 670.082 164.212 670.082 172.833H673.082ZM686.804 160.454C687.574 160.454 688.328 160.511 689.061 160.621L689.505 157.654C688.624 157.522 687.722 157.454 686.804 157.454V160.454ZM690.58 159.892C693.502 154.87 698.938 151.5 705.16 151.5V148.5C697.826 148.5 691.424 152.476 687.987 158.383L690.58 159.892ZM705.16 151.5C711.382 151.5 716.818 154.87 719.74 159.892L722.333 158.383C718.896 152.476 712.493 148.5 705.16 148.5V151.5Z" fill="black"/>
<path d="M720.011 191.697L740.338 195.45C741.864 195.732 742.848 197.226 742.505 198.739C742.197 200.098 740.914 201.006 739.53 200.847L732.589 200.047C732.285 200.908 731.598 202.737 731.288 203.161C730.901 203.691 729.955 203.65 728.759 203.507C727.562 203.364 726.28 202.671 725.327 201.973C725.029 201.756 724.764 201.801 724.541 201.975C723.784 202.565 724.214 203.826 723.747 204.664C723.373 205.335 722.583 205.613 722.499 205.842C722.334 206.29 722.557 207.429 721.577 207.769C720.48 208.15 719.589 209.608 718.486 209.245C716.53 208.602 714.362 207.883 713.764 207.668C712.67 207.274 716.079 202.612 718.269 199.171C718.905 198.172 719.086 197.439 719.008 196.909C718.826 195.686 717.44 194.57 717.646 193.351C717.835 192.236 718.899 191.492 720.011 191.697Z" fill="black" stroke="black"/>
<path d="M691 168.069C685.627 160.952 673.987 170.631 688.314 170.916" stroke="black" stroke-width="2" stroke-linecap="round"/>
<path d="M722.339 167.829C727.712 160.712 739.352 170.392 725.026 170.676" stroke="black" stroke-width="2" stroke-linecap="round"/>
<path fill-rule="evenodd" clip-rule="evenodd" d="M703.153 178.601L688.314 175.186L696.372 183.016L704.183 179.601H709.156L716.967 183.016L725.026 175.186L710.186 178.601H703.153Z" fill="black"/>
<path d="M704.431 187.286C704.431 187.286 705.774 188.353 707.117 188.709M707.117 188.709C708.461 188.353 709.804 187.286 709.804 187.286M707.117 188.709C707.117 190.377 707.117 192.98 707.117 192.98H704.431C706.073 192.743 709.625 192.41 710.699 192.98" stroke="black" stroke-width="2" stroke-linecap="round" stroke-linejoin="round"/>
<rect x="697.012" y="197.339" width="23.6232" height="8.43889" rx="4.21945" transform="rotate(3.24895 697.012 197.339)" fill="black" stroke="white" stroke-width="1.5"/>
<defs>
<filter id="filter0_f_6_114" x="816" y="11" width="277" height="277" filterUnits="userSpaceOnUse" color-interpolation-filters="sRGB">
<feFlood flood-opacity="0" result="BackgroundImageFix"/>
<feBlend mode="normal" in="SourceGraphic" in2="BackgroundImageFix" result="shape"/>
<feGaussianBlur stdDeviation="2.5" result="effect1_foregroundBlur_6_114"/>
</filter>
<filter id="filter1_f_6_114" x="548" y="25" width="9" height="9" filterUnits="userSpaceOnUse" color-interpolation-filters="sRGB">
<feFlood flood-opacity="0" result="BackgroundImageFix"/>
<feBlend mode="normal" in="SourceGraphic" in2="BackgroundImageFix" result="shape"/>
<feGaussianBlur stdDeviation="1" result="effect1_foregroundBlur_6_114"/>
</filter>
<filter id="filter2_f_6_114" x="619" y="84" width="9" height="9" filterUnits="userSpaceOnUse" color-interpolation-filters="sRGB">
<feFlood flood-opacity="0" result="BackgroundImageFix"/>
<feBlend mode="normal" in="SourceGraphic" in2="BackgroundImageFix" result="shape"/>
<feGaussianBlur stdDeviation="1" result="effect1_foregroundBlur_6_114"/>
</filter>
<filter id="filter3_f_6_114" x="501" y="104" width="9" height="9" filterUnits="userSpaceOnUse" color-interpolation-filters="sRGB">
<feFlood flood-opacity="0" result="BackgroundImageFix"/>
<feBlend mode="normal" in="SourceGraphic" in2="BackgroundImageFix" result="shape"/>
<feGaussianBlur stdDeviation="1" result="effect1_foregroundBlur_6_114"/>
</filter>
<filter id="filter4_f_6_114" x="697" y="109" width="9" height="9" filterUnits="userSpaceOnUse" color-interpolation-filters="sRGB">
<feFlood flood-opacity="0" result="BackgroundImageFix"/>
<feBlend mode="normal" in="SourceGraphic" in2="BackgroundImageFix" result="shape"/>
<feGaussianBlur stdDeviation="1" result="effect1_foregroundBlur_6_114"/>
</filter>
<filter id="filter5_f_6_114" x="700" y="34" width="9" height="9" filterUnits="userSpaceOnUse" color-interpolation-filters="sRGB">
<feFlood flood-opacity="0" result="BackgroundImageFix"/>
<feBlend mode="normal" in="SourceGraphic" in2="BackgroundImageFix" result="shape"/>
<feGaussianBlur stdDeviation="1" result="effect1_foregroundBlur_6_114"/>
</filter>
<filter id="filter6_f_6_114" x="814" y="52" width="9" height="9" filterUnits="userSpaceOnUse" color-interpolation-filters="sRGB">
<feFlood flood-opacity="0" result="BackgroundImageFix"/>
<feBlend mode="normal" in="SourceGraphic" in2="BackgroundImageFix" result="shape"/>
<feGaussianBlur stdDeviation="1" result="effect1_foregroundBlur_6_114"/>
</filter>
<filter id="filter7_f_6_114" x="1142" y="23" width="9" height="9" filterUnits="userSpaceOnUse" color-interpolation-filters="sRGB">
<feFlood flood-opacity="0" result="BackgroundImageFix"/>
<feBlend mode="normal" in="SourceGraphic" in2="BackgroundImageFix" result="shape"/>
<feGaussianBlur stdDeviation="1" result="effect1_foregroundBlur_6_114"/>
</filter>
<filter id="filter8_f_6_114" x="1197" y="91" width="9" height="9" filterUnits="userSpaceOnUse" color-interpolation-filters="sRGB">
<feFlood flood-opacity="0" result="BackgroundImageFix"/>
<feBlend mode="normal" in="SourceGraphic" in2="BackgroundImageFix" result="shape"/>
<feGaussianBlur stdDeviation="1" result="effect1_foregroundBlur_6_114"/>
</filter>
<filter id="filter9_f_6_114" x="1270" y="114" width="9" height="9" filterUnits="userSpaceOnUse" color-interpolation-filters="sRGB">
<feFlood flood-opacity="0" result="BackgroundImageFix"/>
<feBlend mode="normal" in="SourceGraphic" in2="BackgroundImageFix" result="shape"/>
<feGaussianBlur stdDeviation="1" result="effect1_foregroundBlur_6_114"/>
</filter>
<filter id="filter10_f_6_114" x="1332" y="21" width="9" height="9" filterUnits="userSpaceOnUse" color-interpolation-filters="sRGB">
<feFlood flood-opacity="0" result="BackgroundImageFix"/>
<feBlend mode="normal" in="SourceGraphic" in2="BackgroundImageFix" result="shape"/>
<feGaussianBlur stdDeviation="1" result="effect1_foregroundBlur_6_114"/>
</filter>
<filter id="filter11_f_6_114" x="1427" y="145" width="9" height="9" filterUnits="userSpaceOnUse" color-interpolation-filters="sRGB">
<feFlood flood-opacity="0" result="BackgroundImageFix"/>
<feBlend mode="normal" in="SourceGraphic" in2="BackgroundImageFix" result="shape"/>
<feGaussianBlur stdDeviation="1" result="effect1_foregroundBlur_6_114"/>
</filter>
<filter id="filter12_f_6_114" x="1223" y="39" width="9" height="9" filterUnits="userSpaceOnUse" color-interpolation-filters="sRGB">
<feFlood flood-opacity="0" result="BackgroundImageFix"/>
<feBlend mode="normal" in="SourceGraphic" in2="BackgroundImageFix" result="shape"/>
<feGaussianBlur stdDeviation="1" result="effect1_foregroundBlur_6_114"/>
</filter>
<linearGradient id="paint0_linear_6_114" x1="866.939" y1="-1.0253e-05" x2="867.449" y2="174.504" gradientUnits="userSpaceOnUse">
<stop stop-color="#07215A"/>
<stop offset="1" stop-color="#0C578E"/>
</linearGradient>
<linearGradient id="paint1_linear_6_114" x1="954.5" y1="16" x2="955" y2="234" gradientUnits="userSpaceOnUse">
<stop stop-color="#99E5F2"/>
<stop offset="1" stop-color="#59848C"/>
</linearGradient>
<linearGradient id="paint2_linear_6_114" x1="912.5" y1="-1.0253e-05" x2="913.5" y2="174.5" gradientUnits="userSpaceOnUse">
<stop stop-color="#07215A"/>
<stop offset="1" stop-color="#0C578E"/>
</linearGradient>
<linearGradient id="paint3_linear_6_114" x1="1111.71" y1="39" x2="1114.71" y2="304.006" gradientUnits="userSpaceOnUse">
<stop stop-color="#052362"/>
<stop offset="1" stop-color="#114A81"/>
</linearGradient>
<linearGradient id="paint4_linear_6_114" x1="912.5" y1="-1.0253e-05" x2="913.5" y2="174.5" gradientUnits="userSpaceOnUse">
<stop stop-color="#07215A"/>
<stop offset="1" stop-color="#0C578E"/>
</linearGradient>
<linearGradient id="paint5_linear_6_114" x1="779.292" y1="87" x2="776.288" y2="352.006" gradientUnits="userSpaceOnUse">
<stop stop-color="#052362"/>
<stop offset="1" stop-color="#114A81"/>
</linearGradient>
<linearGradient id="paint6_linear_6_114" x1="912.5" y1="-1.04606e-05" x2="910" y2="300" gradientUnits="userSpaceOnUse">
<stop stop-color="#07215A"/>
<stop offset="1" stop-color="#0C578E"/>
</linearGradient>
<linearGradient id="paint7_linear_6_114" x1="884.501" y1="215.031" x2="884.501" y2="256.648" gradientUnits="userSpaceOnUse">
<stop stop-color="#062656"/>
<stop offset="1" stop-color="#093866"/>
</linearGradient>
<linearGradient id="paint8_linear_6_114" x1="912.5" y1="-1.04606e-05" x2="910" y2="300" gradientUnits="userSpaceOnUse">
<stop stop-color="#07215A"/>
<stop offset="1" stop-color="#0C578E"/>
</linearGradient>
<linearGradient id="paint9_linear_6_114" x1="958.896" y1="241.774" x2="959.374" y2="269.511" gradientUnits="userSpaceOnUse">
<stop stop-color="#011E46"/>
<stop offset="1" stop-color="#052E56"/>
</linearGradient>
</defs>
</svg>
