<svg width="221" height="301" viewBox="0 0 221 301" fill="none" xmlns="http://www.w3.org/2000/svg">
<rect x="180.253" y="220.763" width="67.562" height="18.32" rx="9.15998" transform="rotate(57.5476 180.253 220.763)" fill="black" stroke="black" stroke-width="5"/>
<mask id="path-2-inside-1_27_2" fill="white">
<path fill-rule="evenodd" clip-rule="evenodd" d="M63.0532 246.344C67.1934 241.412 66.5514 234.057 61.6191 229.917C56.6869 225.777 49.3322 226.419 45.1919 231.351L20.6737 260.56C18.5542 263.085 17.688 266.244 18.009 269.283C17.936 272.315 19.0388 275.372 21.3259 277.713L39.8395 296.66C44.34 301.266 51.7222 301.352 56.3281 296.851C60.934 292.351 61.0194 284.968 56.5189 280.363L44.6736 268.24L63.0532 246.344Z"/>
</mask>
<path fill-rule="evenodd" clip-rule="evenodd" d="M63.0532 246.344C67.1934 241.412 66.5514 234.057 61.6191 229.917C56.6869 225.777 49.3322 226.419 45.1919 231.351L20.6737 260.56C18.5542 263.085 17.688 266.244 18.009 269.283C17.936 272.315 19.0388 275.372 21.3259 277.713L39.8395 296.66C44.34 301.266 51.7222 301.352 56.3281 296.851C60.934 292.351 61.0194 284.968 56.5189 280.363L44.6736 268.24L63.0532 246.344Z" fill="black"/>
<path d="M61.6191 229.917L58.4045 233.747L58.4045 233.747L61.6191 229.917ZM63.0532 246.344L66.8828 249.559L66.8828 249.559L63.0532 246.344ZM45.1919 231.351L41.3623 228.136L41.3623 228.136L45.1919 231.351ZM20.6737 260.56L24.5033 263.774L24.5033 263.774L20.6737 260.56ZM18.009 269.283L23.0076 269.403L23.0154 269.079L22.9814 268.757L18.009 269.283ZM21.3259 277.713L24.9021 274.219L24.9021 274.219L21.3259 277.713ZM39.8395 296.66L43.4157 293.166L43.4157 293.166L39.8395 296.66ZM56.3281 296.851L52.8337 293.275L52.8337 293.275L56.3281 296.851ZM56.5189 280.363L52.9427 283.857L52.9427 283.857L56.5189 280.363ZM44.6736 268.24L40.844 265.025L37.9318 268.494L41.0974 271.734L44.6736 268.24ZM58.4045 233.747C61.2217 236.112 61.5884 240.312 59.2236 243.13L66.8828 249.559C72.7985 242.512 71.8811 232.003 64.8338 226.087L58.4045 233.747ZM49.0215 234.566C51.3864 231.749 55.5872 231.382 58.4045 233.747L64.8338 226.087C57.7865 220.172 47.278 221.089 41.3623 228.136L49.0215 234.566ZM24.5033 263.774L49.0215 234.566L41.3623 228.136L16.8441 257.345L24.5033 263.774ZM22.9814 268.757C22.7971 267.013 23.2922 265.217 24.5033 263.774L16.8441 257.345C13.8162 260.952 12.5789 265.475 13.0367 269.808L22.9814 268.757ZM24.9021 274.219C23.5951 272.881 22.9657 271.143 23.0076 269.403L13.0105 269.162C12.9064 273.486 14.4825 277.864 17.7497 281.207L24.9021 274.219ZM43.4157 293.166L24.9021 274.219L17.7497 281.207L36.2633 300.155L43.4157 293.166ZM52.8337 293.275C50.2029 295.846 45.9863 295.797 43.4157 293.166L36.2633 300.155C42.6937 306.736 53.2415 306.858 59.8225 300.427L52.8337 293.275ZM52.9427 283.857C55.5133 286.488 55.4645 290.704 52.8337 293.275L59.8225 300.427C66.4035 293.997 66.5256 283.449 60.0952 276.868L52.9427 283.857ZM41.0974 271.734L52.9427 283.857L60.0952 276.868L48.2498 264.745L41.0974 271.734ZM59.2236 243.13L40.844 265.025L48.5032 271.454L66.8828 249.559L59.2236 243.13Z" fill="black" mask="url(#path-2-inside-1_27_2)"/>
<mask id="path-4-inside-2_27_2" fill="white">
<path fill-rule="evenodd" clip-rule="evenodd" d="M61.1235 26.24C70.1948 10.6508 87.0832 0.171387 106.419 0.171387C125.755 0.171387 142.644 10.6508 151.715 26.2399C154.017 25.8961 156.38 25.7173 158.788 25.7173C182.773 25.7173 202.216 43.4451 202.216 65.3135C202.216 72.344 200.207 78.9467 196.683 84.6698C210.596 92.5455 220.098 108.377 220.098 126.624C220.098 144.398 211.082 159.88 197.756 167.949C205.264 176.444 209.88 187.989 209.88 200.707C209.88 226.807 190.437 247.966 166.452 247.966C158.856 247.966 151.714 245.844 145.502 242.114C137.703 254.722 124.467 263.016 109.45 263.016C96.819 263.016 85.4474 257.148 77.5118 247.78C71.0005 252.02 63.3837 254.458 55.2437 254.458C31.2591 254.458 11.8157 233.299 11.8157 207.198C11.8157 196.39 15.1495 186.429 20.7591 178.467C8.53141 168.977 0.403809 152.166 0.403809 133.01C0.403809 114.713 7.81968 98.5544 19.1412 88.8719C13.788 82.2886 10.6218 74.1382 10.6218 65.3135C10.6218 43.4451 30.0652 25.7173 54.0498 25.7173C56.4586 25.7173 58.8215 25.8961 61.1235 26.24Z"/>
</mask>
<path fill-rule="evenodd" clip-rule="evenodd" d="M61.1235 26.24C70.1948 10.6508 87.0832 0.171387 106.419 0.171387C125.755 0.171387 142.644 10.6508 151.715 26.2399C154.017 25.8961 156.38 25.7173 158.788 25.7173C182.773 25.7173 202.216 43.4451 202.216 65.3135C202.216 72.344 200.207 78.9467 196.683 84.6698C210.596 92.5455 220.098 108.377 220.098 126.624C220.098 144.398 211.082 159.88 197.756 167.949C205.264 176.444 209.88 187.989 209.88 200.707C209.88 226.807 190.437 247.966 166.452 247.966C158.856 247.966 151.714 245.844 145.502 242.114C137.703 254.722 124.467 263.016 109.45 263.016C96.819 263.016 85.4474 257.148 77.5118 247.78C71.0005 252.02 63.3837 254.458 55.2437 254.458C31.2591 254.458 11.8157 233.299 11.8157 207.198C11.8157 196.39 15.1495 186.429 20.7591 178.467C8.53141 168.977 0.403809 152.166 0.403809 133.01C0.403809 114.713 7.81968 98.5544 19.1412 88.8719C13.788 82.2886 10.6218 74.1382 10.6218 65.3135C10.6218 43.4451 30.0652 25.7173 54.0498 25.7173C56.4586 25.7173 58.8215 25.8961 61.1235 26.24Z" fill="white"/>
<path d="M61.1235 26.24L60.3849 31.1851L63.7393 31.6861L65.4451 28.7547L61.1235 26.24ZM151.715 26.2399L147.393 28.7546L149.099 31.6861L152.454 31.1851L151.715 26.2399ZM196.683 84.6698L192.425 82.0481L189.705 86.4656L194.22 89.0211L196.683 84.6698ZM197.756 167.949L195.166 163.672L190.044 166.774L194.009 171.26L197.756 167.949ZM145.502 242.114L148.076 237.827L143.846 235.287L141.25 239.483L145.502 242.114ZM77.5118 247.78L81.327 244.548L78.4775 241.185L74.7833 243.59L77.5118 247.78ZM20.7591 178.467L24.8465 181.347L27.5961 177.445L23.8248 174.518L20.7591 178.467ZM19.1412 88.8719L22.3909 92.6718L26.0977 89.5018L23.0206 85.7175L19.1412 88.8719ZM65.4451 28.7547C73.6579 14.6408 88.9356 5.17139 106.419 5.17139V-4.82861C85.2309 -4.82861 66.7317 6.66074 56.8019 23.7253L65.4451 28.7547ZM106.419 5.17139C123.903 5.17139 139.181 14.6408 147.393 28.7546L156.037 23.7252C146.107 6.66071 127.608 -4.82861 106.419 -4.82861V5.17139ZM152.454 31.1851C154.511 30.8777 156.627 30.7173 158.788 30.7173V20.7173C156.132 20.7173 153.522 20.9145 150.976 21.2948L152.454 31.1851ZM158.788 30.7173C180.456 30.7173 197.216 46.6312 197.216 65.3135H207.216C207.216 40.2591 185.09 20.7173 158.788 20.7173V30.7173ZM197.216 65.3135C197.216 71.3715 195.489 77.0725 192.425 82.0481L200.94 87.2915C204.925 80.8209 207.216 73.3166 207.216 65.3135H197.216ZM194.22 89.0211C206.498 95.9714 215.098 110.1 215.098 126.624H225.098C225.098 106.654 214.694 89.1195 199.146 80.3186L194.22 89.0211ZM215.098 126.624C215.098 142.716 206.939 156.543 195.166 163.672L200.346 172.226C215.225 163.216 225.098 146.079 225.098 126.624H215.098ZM194.009 171.26C200.707 178.838 204.88 189.204 204.88 200.707H214.88C214.88 186.774 209.821 174.05 201.502 164.638L194.009 171.26ZM204.88 200.707C204.88 224.452 187.286 242.966 166.452 242.966V252.966C193.588 252.966 214.88 229.162 214.88 200.707H204.88ZM166.452 242.966C159.805 242.966 153.549 241.113 148.076 237.827L142.929 246.4C149.88 250.575 157.906 252.966 166.452 252.966V242.966ZM141.25 239.483C134.254 250.794 122.538 258.016 109.45 258.016V268.016C126.396 268.016 141.153 258.65 149.755 244.744L141.25 239.483ZM109.45 258.016C98.4286 258.016 88.4068 252.906 81.327 244.548L73.6967 251.012C82.488 261.39 95.2095 268.016 109.45 268.016V258.016ZM74.7833 243.59C69.0401 247.33 62.364 249.458 55.2437 249.458V259.458C64.4033 259.458 72.9609 256.711 80.2404 251.97L74.7833 243.59ZM55.2437 249.458C34.4101 249.458 16.8157 230.944 16.8157 207.198H6.81569C6.81569 235.654 28.108 259.458 55.2437 259.458V249.458ZM16.8157 207.198C16.8157 197.423 19.8292 188.468 24.8465 181.347L16.6717 175.588C10.4698 184.39 6.81569 195.356 6.81569 207.198H16.8157ZM23.8248 174.518C12.9679 166.091 5.40381 150.822 5.40381 133.01H-4.59619C-4.59619 153.51 4.09495 171.863 17.6934 182.417L23.8248 174.518ZM5.40381 133.01C5.40381 116.006 12.302 101.3 22.3909 92.6718L15.8915 85.0721C3.33735 95.8086 -4.59619 113.419 -4.59619 133.01H5.40381ZM23.0206 85.7175C18.3391 79.9602 15.6218 72.9075 15.6218 65.3135H5.62181C5.62181 75.3688 9.237 84.6171 15.2618 92.0264L23.0206 85.7175ZM15.6218 65.3135C15.6218 46.6312 32.3819 30.7173 54.0498 30.7173V20.7173C27.7485 20.7173 5.62181 40.2591 5.62181 65.3135H15.6218ZM54.0498 30.7173C56.2109 30.7173 58.327 30.8777 60.3849 31.1851L61.8621 21.2948C59.316 20.9145 56.7062 20.7173 54.0498 20.7173V30.7173Z" fill="black" mask="url(#path-4-inside-2_27_2)"/>
<path d="M66.0222 51.7214C50.6946 31.4157 17.485 59.0314 58.3584 59.8437" stroke="black" stroke-width="5" stroke-linecap="round"/>
<path d="M155.433 51.0377C170.76 30.732 203.97 58.3477 163.097 59.1599" stroke="black" stroke-width="5" stroke-linecap="round"/>
<path fill-rule="evenodd" clip-rule="evenodd" d="M100.376 81.6954L58.3584 72.0273L81.3497 94.3636L103.465 84.6954H117.99L140.105 94.3636L163.096 72.0273L121.078 81.6954L100.376 81.6954Z" fill="black"/>
<path d="M104.341 106.547C104.341 106.547 108.173 109.593 112.005 110.608M112.005 110.608C115.836 109.593 119.668 106.547 119.668 106.547M112.005 110.608C112.005 115.366 112.005 122.791 112.005 122.791H104.341C109.024 122.114 119.157 121.167 122.223 122.791" stroke="black" stroke-width="3" stroke-linecap="round" stroke-linejoin="round"/>
<path d="M148.012 118.989L211.687 130.745C213.363 131.055 214.445 132.697 214.068 134.359L212.014 143.411C211.675 144.904 210.266 145.903 208.745 145.727L184.675 142.954C183.806 145.411 181.848 150.629 180.963 151.838C179.858 153.35 177.16 153.233 173.747 152.825C170.333 152.417 166.676 150.44 163.955 148.45C162.259 147.211 160.93 148.96 160.183 150.677C159.8 151.556 159.904 152.544 159.985 153.5C160.318 157.436 156.216 158.592 155.887 159.486C155.416 160.765 156.055 164.016 153.258 164.986C150.128 166.072 147.586 170.232 144.439 169.196C138.859 167.36 132.674 165.31 130.968 164.696C127.846 163.573 137.572 150.271 143.819 140.456C146.011 137.012 146.31 134.677 145.697 133.135C144.569 130.298 141.383 127.75 141.892 124.739L142.174 123.072C142.64 120.32 145.268 118.483 148.012 118.989Z" fill="black" stroke="black"/>
<rect x="82.5722" y="134.552" width="67" height="17.4041" rx="8.70205" transform="rotate(3.24895 82.5722 134.552)" fill="black" stroke="white" stroke-width="3"/>
</svg>
