<svg width="1920" height="1080" viewBox="0 0 1920 1080" fill="none" xmlns="http://www.w3.org/2000/svg">
<rect width="1920" height="1080" fill="url(#paint0_linear_7_115)"/>
<mask id="mask0_7_115" style="mask-type:alpha" maskUnits="userSpaceOnUse" x="0" y="0" width="1920" height="1080">
<rect width="1920" height="1080" fill="url(#paint1_linear_7_115)"/>
</mask>
<g mask="url(#mask0_7_115)">
<g filter="url(#filter0_f_7_115)">
<circle cx="1020.5" cy="807.5" r="756.5" fill="url(#paint2_radial_7_115)"/>
</g>
</g>
<mask id="mask1_7_115" style="mask-type:alpha" maskUnits="userSpaceOnUse" x="0" y="0" width="1920" height="1080">
<rect width="1920" height="1080" fill="url(#paint3_linear_7_115)"/>
</mask>
<g mask="url(#mask1_7_115)">
<path d="M437.113 962.027H360.881V796.903H339V962.027V1388.6H1963.16V1218.89H1808.58V640.951H1734.47V1218.89H1710.47V536.984H1630V723.514H1589.77V923.804H1570V850.415H1549.53V923.804H1517.77V692.935H1463.42V763.266H1427.42V1015.54H1387.19V1159.26H1308.84V536.984H1292.6V485H1236.14V536.984H1198.02V1159.26H985.56V962.027H955.208V763.266H919.21V605.786H866.977V763.266H838.743V962.027H814.744V1159.26H738.512V962.027V605.786H700.396V763.266H665.809V962.027H637.575V923.804H617.811V962.027H586.048V923.804H541.579V962.027H509.11V605.786H437.113V962.027Z" fill="url(#paint4_linear_7_115)"/>
<mask id="mask2_7_115" style="mask-type:alpha" maskUnits="userSpaceOnUse" x="0" y="196" width="1845" height="884">
<rect y="196" width="1845" height="884" fill="url(#paint5_linear_7_115)"/>
</mask>
<g mask="url(#mask2_7_115)">
<path d="M931.512 1030.96H984.621V940.98H999.865V1030.96V1263.41H-131.656V1170.93H-23.9626V855.999H27.6713V1170.93H44.3909V799.344H100.451V900.989H128.48V1010.13H142.25V970.14H156.51V1010.13H178.639V884.326H216.504V922.65H241.583V1060.12H269.613V1138.44H324.198V799.344H335.508V771.017H374.848V799.344H401.403V1138.44H549.42V1030.96H570.566V922.65H595.645V836.836H632.035V922.65H651.705V1030.96H668.424V1138.44H721.534V1030.96V836.836H748.088V922.65H772.184V1030.96H791.854V1010.13H805.623V1030.96H827.752V1010.13H858.732V1030.96H881.353V836.836H931.512V1030.96Z" fill="url(#paint6_linear_7_115)"/>
</g>
<mask id="mask3_7_115" style="mask-type:alpha" maskUnits="userSpaceOnUse" x="0" y="196" width="1845" height="884">
<rect y="196" width="1845" height="884" fill="url(#paint7_linear_7_115)"/>
</mask>
<g mask="url(#mask3_7_115)">
<path d="M1796.57 1063.46H1841.89V981.741H1854.9V1063.46V1274.57H889.208V1190.58H981.119V904.561H1025.19V1190.58H1039.46V853.107H1087.3V945.421H1111.22V1044.54H1122.97V1008.22H1135.14V1044.54H1154.03V930.288H1186.35V965.095H1207.75V1089.95H1231.67V1161.07H1278.26V853.107H1287.91V827.381H1321.48V853.107H1344.15V1161.07H1470.47V1063.46H1488.52V965.095H1509.92V887.158H1540.98V965.095H1557.77V1063.46H1572.04V1161.07H1617.36V1063.46V887.158H1640.02V965.095H1660.59V1063.46H1677.38V1044.54H1689.13V1063.46H1708.01V1044.54H1734.45V1063.46H1753.76V887.158H1796.57V1063.46Z" fill="url(#paint8_linear_7_115)"/>
</g>
<mask id="mask4_7_115" style="mask-type:alpha" maskUnits="userSpaceOnUse" x="0" y="0" width="1920" height="1080">
<rect width="1920" height="1080" fill="url(#paint9_linear_7_115)"/>
</mask>
<g mask="url(#mask4_7_115)">
<path d="M613.126 925.4C401.688 925.4 94.1673 1018.06 -33.1633 1064.39L-21.8068 1540.93L1912.93 1566.2C1924.29 1385.09 1940.19 1017.1 1912.93 993.993C1878.86 965.112 1738.45 925.4 1496.87 1022.87C1255.29 1120.35 877.423 925.4 613.126 925.4Z" fill="url(#paint10_linear_7_115)"/>
</g>
<mask id="mask5_7_115" style="mask-type:alpha" maskUnits="userSpaceOnUse" x="0" y="0" width="1920" height="1080">
<rect width="1920" height="1080" fill="url(#paint11_linear_7_115)"/>
</mask>
<g mask="url(#mask5_7_115)">
<path d="M513.938 980.766C323.444 999.241 94.8503 944.97 84.135 942.66L-48.0204 903.4V1270.6H2024.8V942.66C1895.02 992.313 1729.53 993.468 1380.69 942.66C1031.84 891.853 704.432 962.291 513.938 980.766Z" fill="url(#paint12_linear_7_115)"/>
</g>
<rect y="1008" width="1920" height="72" fill="url(#paint13_linear_7_115)"/>
<g filter="url(#filter1_f_7_115)">
<ellipse cx="102.084" cy="80.3178" rx="5.15575" ry="5.89147" fill="#99E5F2"/>
</g>
<g filter="url(#filter2_f_7_115)">
<ellipse cx="248.507" cy="219.357" rx="5.15575" ry="5.89147" fill="#99E5F2"/>
</g>
<g filter="url(#filter3_f_7_115)">
<ellipse cx="48.1557" cy="218.891" rx="5.15575" ry="5.89147" fill="#99E5F2"/>
</g>
<g filter="url(#filter4_f_7_115)">
<ellipse cx="163.156" cy="620.891" rx="5.15575" ry="5.89147" fill="#99E5F2"/>
</g>
<g filter="url(#filter5_f_7_115)">
<ellipse cx="415.553" cy="101.527" rx="5.15575" ry="5.89147" fill="#99E5F2"/>
</g>
<g filter="url(#filter6_f_7_115)">
<ellipse cx="129.156" cy="367.891" rx="5.15575" ry="5.89147" fill="#99E5F2"/>
</g>
<g filter="url(#filter7_f_7_115)">
<ellipse cx="43.1557" cy="510.891" rx="5.15575" ry="5.89147" fill="#99E5F2"/>
</g>
<g filter="url(#filter8_f_7_115)">
<ellipse cx="1815.16" cy="325.891" rx="5.15575" ry="5.89147" fill="#99E5F2"/>
</g>
<g filter="url(#filter9_f_7_115)">
<ellipse cx="1795.16" cy="558.891" rx="5.15575" ry="5.89147" fill="#99E5F2"/>
</g>
<g filter="url(#filter10_f_7_115)">
<ellipse cx="1327.09" cy="75.6047" rx="5.15575" ry="5.89147" fill="#99E5F2"/>
</g>
<g filter="url(#filter11_f_7_115)">
<ellipse cx="1720.16" cy="201.891" rx="5.15575" ry="5.89147" fill="#99E5F2"/>
</g>
<g filter="url(#filter12_f_7_115)">
<ellipse cx="1591.06" cy="290.054" rx="5.15575" ry="5.89147" fill="#99E5F2"/>
</g>
<g filter="url(#filter13_f_7_115)">
<ellipse cx="1718.93" cy="70.8915" rx="5.15575" ry="5.89147" fill="#99E5F2"/>
</g>
<g filter="url(#filter14_f_7_115)">
<ellipse cx="1868.16" cy="148.891" rx="5.15575" ry="5.89147" fill="#99E5F2"/>
</g>
<g filter="url(#filter15_f_7_115)">
<ellipse cx="1494.14" cy="113.31" rx="5.15575" ry="5.89147" fill="#99E5F2"/>
</g>
<mask id="mask6_7_115" style="mask-type:alpha" maskUnits="userSpaceOnUse" x="0" y="0" width="1920" height="1080">
<rect width="1920" height="1080" fill="url(#paint14_linear_7_115)"/>
</mask>
<g mask="url(#mask6_7_115)">
<path d="M1844.46 984.105C1841.55 1002.04 1827.57 1015.01 1814.07 1022.65C1824.17 1031.78 1828.72 1042.53 1829.99 1052.71C1831.49 1064.63 1828.49 1075.6 1825.17 1082.24L1823.79 1085H1820.7H1483.17H1478.94L1478.24 1080.82C1476.54 1070.63 1480.14 1061.92 1484.94 1055.44C1487.91 1051.42 1491.43 1048.12 1494.71 1045.63C1474.04 1023.73 1470.97 1000.52 1476.3 980.18C1481.21 961.466 1493.12 945.525 1503.89 935.248C1482.39 915.702 1477.3 895.658 1481.02 878.025C1484.62 860.941 1496.29 847.159 1506.48 839.075C1506.87 823.556 1510.92 811.509 1517.68 802.434C1524.79 792.885 1534.56 787.066 1545.09 783.809C1564.92 777.679 1588.07 780.404 1604.14 784.867C1634.87 762.778 1662.46 760.536 1684.63 767.524C1705.74 774.175 1721.32 788.986 1729.84 801.414C1753.82 803.063 1771.53 808.375 1784.2 816.316C1797.43 824.603 1804.94 835.616 1808.29 847.646C1814.37 869.468 1806.61 893.81 1797.28 910.755C1835.74 938.264 1847.87 963.112 1844.46 984.105Z" fill="white" stroke="black" stroke-width="10"/>
<path d="M1712.76 871.962C1733.97 836.618 1779.92 884.686 1723.37 886.099" stroke="black" stroke-width="7" stroke-linecap="round"/>
<path d="M1589.06 870.772C1567.85 835.428 1521.91 883.495 1578.46 884.909" stroke="black" stroke-width="7" stroke-linecap="round"/>
<path d="M1659.75 967.389C1659.75 967.389 1654.45 972.691 1649.14 974.458M1649.14 974.458C1643.84 972.691 1638.54 967.389 1638.54 967.389M1649.14 974.458C1640.5 992 1638.54 995.664 1638.54 995.664C1649.14 995 1652.5 995 1659.75 994.5C1657 989 1655 985 1649.14 974.458Z" stroke="black" stroke-width="8" stroke-linecap="round" stroke-linejoin="round"/>
<rect x="-4.94906" y="0.0825013" width="72.2175" height="29.429" rx="14.7145" transform="matrix(-0.718794 -0.695223 -0.695223 0.718794 1755.99 1025.69)" fill="black" stroke="black" stroke-width="7"/>
<mask id="mask7_7_115" style="mask-type:alpha" maskUnits="userSpaceOnUse" x="1678" y="969" width="116" height="108">
<rect width="60.6361" height="96.6048" transform="matrix(-0.687633 -0.726058 -0.760647 0.649166 1793.19 1013.61)" fill="#D9D9D9"/>
</mask>
<g mask="url(#mask7_7_115)">
<path d="M1720.27 1023.22C1713.4 1035.98 1718.91 1052.82 1733.38 1060.6C1747.86 1068.39 1764.94 1063.71 1771.81 1050.96C1778.67 1038.21 1773.17 1021.37 1758.69 1013.58C1744.22 1005.79 1727.13 1010.47 1720.27 1023.22Z" fill="white" stroke="black" stroke-width="7" stroke-linejoin="round"/>
</g>
<rect x="1547.7" y="1030.19" width="72.2175" height="29.4289" rx="14.7145" transform="rotate(-44.045 1547.7 1030.19)" fill="black" stroke="black" stroke-width="7"/>
<mask id="mask8_7_115" style="mask-type:alpha" maskUnits="userSpaceOnUse" x="1514" y="970" width="116" height="108">
<rect width="60.6361" height="96.6048" transform="matrix(0.687633 -0.726058 0.760647 0.649166 1514.01 1014.61)" fill="#D9D9D9"/>
</mask>
<g mask="url(#mask8_7_115)">
<path d="M1586.93 1024.22C1593.79 1036.98 1588.28 1053.82 1573.81 1061.6C1559.34 1069.39 1542.25 1064.71 1535.39 1051.96C1528.52 1039.21 1534.03 1022.37 1548.5 1014.58C1562.98 1006.79 1580.06 1011.47 1586.93 1024.22Z" fill="white" stroke="black" stroke-width="7" stroke-linejoin="round"/>
</g>
<circle cx="1607.5" cy="932.5" r="13.5" fill="black"/>
<circle cx="1681.5" cy="932.5" r="13.5" fill="black"/>
<path d="M1611 904C1604.23 913.676 1598.52 916.889 1584.6 918.707" stroke="black" stroke-width="7" stroke-linecap="round"/>
<path d="M1672 904.713C1680.11 913.295 1686.23 915.641 1700.27 915.405" stroke="black" stroke-width="7" stroke-linecap="round"/>
</g>
<rect x="1004.27" y="951.864" width="67.562" height="18.32" rx="9.15998" transform="rotate(67.1152 1004.27 951.864)" fill="black" stroke="white" stroke-width="5"/>
<mask id="path-46-inside-1_7_115" fill="white">
<path fill-rule="evenodd" clip-rule="evenodd" d="M884.444 957.61C889.346 953.435 889.935 946.076 885.76 941.173C881.584 936.271 874.225 935.681 869.323 939.857L840.291 964.584C837.781 966.721 836.402 969.693 836.213 972.743C835.637 975.72 836.217 978.919 838.083 981.607L853.19 1003.37C856.862 1008.66 864.127 1009.97 869.417 1006.3C874.707 1002.62 876.018 995.359 872.346 990.069L862.68 976.146L884.444 957.61Z"/>
</mask>
<path fill-rule="evenodd" clip-rule="evenodd" d="M884.444 957.61C889.346 953.435 889.935 946.076 885.76 941.173C881.584 936.271 874.225 935.681 869.323 939.857L840.291 964.584C837.781 966.721 836.402 969.693 836.213 972.743C835.637 975.72 836.217 978.919 838.083 981.607L853.19 1003.37C856.862 1008.66 864.127 1009.97 869.417 1006.3C874.707 1002.62 876.018 995.359 872.346 990.069L862.68 976.146L884.444 957.61Z" fill="black"/>
<path d="M885.76 941.173L881.953 944.415L881.953 944.415L885.76 941.173ZM884.444 957.61L887.686 961.417L887.686 961.417L884.444 957.61ZM869.323 939.857L866.081 936.05L866.081 936.05L869.323 939.857ZM840.291 964.584L843.533 968.39L843.533 968.39L840.291 964.584ZM836.213 972.743L841.122 973.692L841.184 973.374L841.204 973.051L836.213 972.743ZM838.083 981.607L842.19 978.756L842.19 978.756L838.083 981.607ZM853.19 1003.37L857.297 1000.52L857.297 1000.52L853.19 1003.37ZM869.417 1006.3L866.566 1002.19L869.417 1006.3ZM872.346 990.069L868.239 992.921L868.239 992.921L872.346 990.069ZM862.68 976.146L859.438 972.34L855.99 975.277L858.573 978.998L862.68 976.146ZM881.953 944.415C884.338 947.215 884.002 951.419 881.202 953.804L887.686 961.417C894.69 955.451 895.532 944.936 889.566 937.931L881.953 944.415ZM872.565 943.663C875.365 941.278 879.568 941.615 881.953 944.415L889.566 937.931C883.6 930.926 873.085 930.084 866.081 936.05L872.565 943.663ZM843.533 968.39L872.565 943.663L866.081 936.05L837.049 960.777L843.533 968.39ZM841.204 973.051C841.312 971.3 842.099 969.612 843.533 968.39L837.049 960.777C833.464 963.831 831.492 968.086 831.223 972.434L841.204 973.051ZM842.19 978.756C841.124 977.219 840.792 975.401 841.122 973.692L831.304 971.793C830.483 976.04 831.31 980.618 833.976 984.458L842.19 978.756ZM857.297 1000.52L842.19 978.756L833.976 984.458L849.082 1006.22L857.297 1000.52ZM866.566 1002.19C863.544 1004.29 859.395 1003.54 857.297 1000.52L849.082 1006.22C854.329 1013.78 864.71 1015.65 872.269 1010.4L866.566 1002.19ZM868.239 992.921C870.336 995.942 869.587 1000.09 866.566 1002.19L872.269 1010.4C879.827 1005.16 881.7 994.776 876.453 987.218L868.239 992.921ZM858.573 978.998L868.239 992.921L876.453 987.218L866.788 973.295L858.573 978.998ZM881.202 953.804L859.438 972.34L865.922 979.953L887.686 961.417L881.202 953.804Z" fill="white" mask="url(#path-46-inside-1_7_115)"/>
<rect x="802.437" y="810" width="70" height="20" rx="10" transform="rotate(12.8166 802.437 810)" fill="black" stroke="white" stroke-width="3"/>
<mask id="path-49-inside-2_7_115" fill="white">
<path fill-rule="evenodd" clip-rule="evenodd" d="M919.125 740.247C930.661 726.382 949.056 718.856 968.123 722.069C987.19 725.283 1002.1 738.424 1008.46 755.304C1010.78 755.348 1013.14 755.564 1015.52 755.964C1039.17 759.951 1055.4 780.664 1051.76 802.228C1050.59 809.161 1047.51 815.338 1043.09 820.395C1055.5 830.474 1062.24 847.665 1059.2 865.658C1056.25 883.184 1044.79 896.952 1030.3 902.695C1036.29 912.32 1038.93 924.471 1036.81 937.012C1032.48 962.749 1009.79 980.382 986.135 976.396C978.644 975.133 971.955 971.853 966.449 967.143C956.663 978.279 942.232 984.258 927.424 981.762C914.969 979.663 904.731 971.986 898.463 961.429C891.337 964.528 883.421 965.666 875.394 964.313C851.743 960.326 836.087 936.23 840.425 910.492C842.222 899.834 847.165 890.566 854.02 883.648C843.54 872.257 838.319 854.329 841.503 835.44C844.544 817.396 854.543 802.696 867.316 795.03C863.132 787.648 861.364 779.085 862.831 770.383C866.466 748.819 888.585 734.569 912.236 738.556C914.612 738.956 916.912 739.525 919.125 740.247Z"/>
</mask>
<path fill-rule="evenodd" clip-rule="evenodd" d="M919.125 740.247C930.661 726.382 949.056 718.856 968.123 722.069C987.19 725.283 1002.1 738.424 1008.46 755.304C1010.78 755.348 1013.14 755.564 1015.52 755.964C1039.17 759.951 1055.4 780.664 1051.76 802.228C1050.59 809.161 1047.51 815.338 1043.09 820.395C1055.5 830.474 1062.24 847.665 1059.2 865.658C1056.25 883.184 1044.79 896.952 1030.3 902.695C1036.29 912.32 1038.93 924.471 1036.81 937.012C1032.48 962.749 1009.79 980.382 986.135 976.396C978.644 975.133 971.955 971.853 966.449 967.143C956.663 978.279 942.232 984.258 927.424 981.762C914.969 979.663 904.731 971.986 898.463 961.429C891.337 964.528 883.421 965.666 875.394 964.313C851.743 960.326 836.087 936.23 840.425 910.492C842.222 899.834 847.165 890.566 854.02 883.648C843.54 872.257 838.319 854.329 841.503 835.44C844.544 817.396 854.543 802.696 867.316 795.03C863.132 787.648 861.364 779.085 862.831 770.383C866.466 748.819 888.585 734.569 912.236 738.556C914.612 738.956 916.912 739.525 919.125 740.247Z" fill="white"/>
<path d="M919.125 740.247L917.574 745L920.799 746.052L922.968 743.445L919.125 740.247ZM1008.46 755.304L1003.78 757.066L1004.97 760.24L1008.36 760.303L1008.46 755.304ZM1043.09 820.395L1039.32 817.103L1035.91 821.006L1039.93 824.277L1043.09 820.395ZM1030.3 902.695L1028.46 898.047L1022.89 900.254L1026.06 905.337L1030.3 902.695ZM966.449 967.143L969.7 963.343L965.95 960.135L962.693 963.842L966.449 967.143ZM898.463 961.429L902.762 958.877L900.511 955.086L896.468 956.844L898.463 961.429ZM854.02 883.648L857.572 887.167L860.932 883.776L857.699 880.262L854.02 883.648ZM867.316 795.03L869.889 799.317L874.071 796.807L871.666 792.564L867.316 795.03ZM922.968 743.445C933.413 730.892 950.052 724.094 967.292 727L968.954 717.139C948.061 713.617 927.909 721.872 915.281 737.049L922.968 743.445ZM967.292 727C984.533 729.906 998.024 741.783 1003.78 757.066L1013.14 753.543C1006.18 735.065 989.848 720.661 968.954 717.139L967.292 727ZM1008.36 760.303C1010.44 760.342 1012.56 760.536 1014.69 760.895L1016.35 751.034C1013.73 750.593 1011.12 750.353 1008.55 750.305L1008.36 760.303ZM1014.69 760.895C1036.05 764.496 1049.94 782.975 1046.83 801.397L1056.69 803.059C1060.86 778.353 1042.28 755.406 1016.35 751.034L1014.69 760.895ZM1046.83 801.397C1045.82 807.371 1043.17 812.705 1039.32 817.103L1046.85 823.688C1051.85 817.97 1055.36 810.951 1056.69 803.059L1046.83 801.397ZM1039.93 824.277C1050.89 833.171 1057.02 848.533 1054.27 864.827L1064.13 866.489C1067.45 846.796 1060.11 827.777 1046.24 816.514L1039.93 824.277ZM1054.27 864.827C1051.6 880.695 1041.25 892.974 1028.46 898.047L1032.15 907.343C1048.32 900.931 1060.9 885.673 1064.13 866.489L1054.27 864.827ZM1026.06 905.337C1031.4 913.923 1033.8 924.838 1031.88 936.181L1041.74 937.843C1044.06 924.104 1041.19 910.716 1034.55 900.052L1026.06 905.337ZM1031.88 936.181C1027.94 959.596 1007.51 974.928 986.966 971.465L985.304 981.326C1012.06 985.837 1037.01 965.903 1041.74 937.843L1031.88 936.181ZM986.966 971.465C980.411 970.361 974.55 967.493 969.7 963.343L963.199 970.942C969.36 976.213 976.876 979.906 985.304 981.326L986.966 971.465ZM962.693 963.842C953.915 973.832 941.161 979.007 928.255 976.832L926.593 986.693C943.303 989.509 959.412 982.726 970.205 970.443L962.693 963.842ZM928.255 976.832C917.387 975 908.354 968.295 902.762 958.877L894.163 963.982C901.107 975.677 912.55 984.326 926.593 986.693L928.255 976.832ZM896.468 956.844C890.183 959.578 883.247 960.566 876.225 959.382L874.563 969.243C883.595 970.765 892.491 969.479 900.457 966.014L896.468 956.844ZM876.225 959.382C855.682 955.919 841.409 934.738 845.356 911.323L835.495 909.661C830.765 937.721 847.805 964.733 874.563 969.243L876.225 959.382ZM845.356 911.323C846.981 901.685 851.441 893.355 857.572 887.167L850.468 880.129C842.889 887.778 837.463 897.984 835.495 909.661L845.356 911.323ZM857.699 880.262C848.394 870.148 843.473 853.835 846.434 836.271L836.573 834.609C833.165 854.823 838.685 874.365 850.34 887.033L857.699 880.262ZM846.434 836.271C849.26 819.503 858.506 806.148 869.889 799.317L864.743 790.742C850.579 799.243 839.829 815.29 836.573 834.609L846.434 836.271ZM871.666 792.564C868.006 786.108 866.499 778.702 867.761 771.214L857.901 769.552C856.229 779.467 858.257 789.188 862.967 797.495L871.666 792.564ZM867.761 771.214C870.867 752.791 890.039 739.885 911.405 743.486L913.067 733.625C887.132 729.254 862.065 744.846 857.901 769.552L867.761 771.214ZM911.405 743.486C913.536 743.845 915.596 744.355 917.574 745L920.675 735.493C918.228 734.695 915.687 734.067 913.067 733.625L911.405 743.486Z" fill="black" mask="url(#path-49-inside-2_7_115)"/>
<rect x="1102.93" y="830.597" width="67" height="17" rx="8.5" transform="rotate(152.933 1102.93 830.597)" fill="black" stroke="white" stroke-width="3"/>
<path d="M803.671 778.274L742.836 800.45C741.234 801.033 740.44 802.833 741.088 804.409L744.618 812.994C745.201 814.41 746.756 815.16 748.227 814.734L771.501 807.999C772.766 810.278 775.565 815.097 776.638 816.143C777.979 817.45 780.62 816.886 783.918 815.916C787.216 814.947 790.494 812.389 792.846 809.975C794.312 808.471 795.914 809.975 796.936 811.543C797.46 812.347 797.521 813.338 797.6 814.294C797.926 818.231 802.163 818.689 802.636 819.516C803.313 820.699 803.224 824.011 806.143 824.503C809.41 825.053 812.608 828.733 815.539 827.188C820.736 824.45 826.494 821.401 828.074 820.512C830.967 818.886 819.165 807.385 811.373 798.745C808.639 795.713 807.957 793.46 808.305 791.838C808.945 788.853 811.664 785.811 810.661 782.927L810.106 781.329C809.189 778.693 806.292 777.318 803.671 778.274Z" fill="black"/>
<path d="M889.548 745.954C877.679 723.261 840.004 745.052 880.561 752.716L889.548 745.954Z" fill="white"/>
<path d="M889.282 745.875C877.543 723.304 840.205 745.015 880.375 752.61" stroke="black" stroke-width="5" stroke-linecap="round"/>
<path d="M1032.64 770.763C1046.16 749.212 1081.63 773.864 1040.98 778.195L1032.64 770.763Z" fill="white"/>
<path d="M1032.64 770.763C1046.16 749.212 1081.63 773.864 1040.98 778.195" stroke="black" stroke-width="5" stroke-linecap="round"/>
<path d="M948.393 826.62C948.393 826.62 951.665 830.26 955.275 831.898M955.275 831.898C959.223 831.534 963.507 829.167 963.507 829.167M955.275 831.898C954.484 836.59 953.25 843.912 953.25 843.912L945.693 842.638C950.424 842.749 960.574 843.499 963.326 845.611" stroke="black" stroke-width="3" stroke-linecap="round" stroke-linejoin="round"/>
<path d="M898.089 778.479C909.106 770.113 943.36 774.394 950.025 782.376C956.689 790.359 952.712 809.665 944.537 815.605C936.363 821.545 910.527 824.854 899.532 818.083C888.538 811.312 887.073 786.846 898.089 778.479Z" fill="black" stroke="black"/>
<path d="M1023.54 798.646C1015.8 787.182 981.988 780.222 973.111 785.638C964.233 791.054 961.793 810.614 967.623 818.867C973.454 827.12 996.854 838.559 1009.44 835.683C1022.03 832.807 1031.28 810.11 1023.54 798.646Z" fill="black" stroke="black"/>
<path d="M933.017 777.232L991.167 786.835M952.287 793.903C953.216 788.276 969.294 790.931 968.365 796.559" stroke="black" stroke-width="3"/>
<path fill-rule="evenodd" clip-rule="evenodd" d="M975.069 664.439C948.501 661.863 872.656 680.559 871.583 713.656C870.913 734.305 901.258 749.431 934.199 759.253L932.266 763.739C940.812 764.849 951.237 765.831 962.444 766.386C973.42 768.713 983.75 770.428 992.296 771.538L991.573 766.708C1025.93 765.629 1059.13 758.76 1063.76 738.625C1071.18 706.353 1002.63 668.897 976.289 664.598L976.286 664.577C976.088 664.551 975.886 664.526 975.681 664.503C975.477 664.473 975.276 664.445 975.078 664.42L975.069 664.439Z" fill="#3A6693"/>
<path d="M871.583 713.656L869.084 713.575L871.583 713.656ZM975.069 664.439L974.828 666.928L976.643 667.103L977.365 665.429L975.069 664.439ZM934.199 759.253L936.495 760.243L937.608 757.661L934.914 756.857L934.199 759.253ZM932.266 763.739L929.97 762.749L928.659 765.791L931.944 766.218L932.266 763.739ZM962.444 766.386L962.962 763.941L962.767 763.899L962.567 763.889L962.444 766.386ZM992.296 771.538L991.974 774.017L995.259 774.444L994.769 771.168L992.296 771.538ZM991.573 766.708L991.495 764.209L988.684 764.297L989.101 767.078L991.573 766.708ZM1063.76 738.625L1066.2 739.186L1066.2 739.186L1063.76 738.625ZM976.289 664.598L973.817 664.968L974.087 666.771L975.886 667.065L976.289 664.598ZM976.286 664.577L978.758 664.206L978.479 662.34L976.608 662.097L976.286 664.577ZM975.681 664.503L975.317 666.977L975.359 666.983L975.401 666.988L975.681 664.503ZM975.078 664.42L975.4 661.94L973.529 661.697L972.782 663.43L975.078 664.42ZM874.081 713.737C874.317 706.473 878.662 699.705 886.065 693.565C893.449 687.441 903.581 682.2 914.651 678.008C936.851 669.601 962.054 665.689 974.828 666.928L975.311 661.951C961.517 660.613 935.512 664.762 912.88 673.332C901.533 677.629 890.842 683.107 882.873 689.716C874.924 696.31 869.385 704.29 869.084 713.575L874.081 713.737ZM934.914 756.857C918.535 751.974 902.979 745.819 891.654 738.421C880.22 730.953 873.791 722.693 874.081 713.737L869.084 713.575C868.705 725.268 877.113 734.895 888.92 742.607C900.835 750.391 916.923 756.71 933.485 761.649L934.914 756.857ZM931.904 758.264L929.97 762.749L934.562 764.728L936.495 760.243L931.904 758.264ZM931.944 766.218C940.557 767.337 951.048 768.325 962.32 768.883L962.567 763.889C951.426 763.338 941.068 762.361 932.588 761.259L931.944 766.218ZM992.618 769.059C984.138 767.957 973.874 766.254 962.962 763.941L961.925 768.832C972.966 771.173 983.361 772.898 991.974 774.017L992.618 769.059ZM989.101 767.078L989.824 771.908L994.769 771.168L994.046 766.338L989.101 767.078ZM991.651 769.206C1008.93 768.664 1026.09 766.666 1039.6 762.186C1052.99 757.746 1063.58 750.588 1066.2 739.186L1061.33 738.065C1059.32 746.798 1050.99 753.141 1038.03 757.44C1025.19 761.698 1008.58 763.673 991.495 764.209L991.651 769.206ZM1066.2 739.186C1068.28 730.132 1064.97 721.002 1058.96 712.596C1052.95 704.17 1044.01 696.142 1034.14 689.088C1014.45 675.018 990.37 664.362 976.692 662.13L975.886 667.065C988.553 669.132 1011.92 679.354 1031.23 693.156C1040.86 700.037 1049.32 707.693 1054.9 715.501C1060.48 723.329 1062.95 730.982 1061.33 738.065L1066.2 739.186ZM973.813 664.947L973.817 664.968L978.761 664.227L978.758 664.206L973.813 664.947ZM975.401 666.988C975.592 667.009 975.78 667.032 975.964 667.056L976.608 662.097C976.395 662.07 976.18 662.044 975.961 662.019L975.401 666.988ZM976.045 662.03C975.828 661.998 975.613 661.968 975.4 661.94L974.756 666.899C974.94 666.923 975.127 666.949 975.317 666.977L976.045 662.03ZM972.782 663.43L972.774 663.449L977.365 665.429L977.374 665.409L972.782 663.43Z" fill="black"/>
<path d="M893.793 743.709L896.374 723.851C896.374 723.851 905.56 719.275 932.223 712.437C958.886 705.598 970.798 708.382 970.798 708.382C970.798 708.382 980.857 709.689 1009.07 722.421C1037.28 735.153 1037.19 742.147 1037.19 742.147L1034.61 762.005L893.793 743.709Z" fill="#4579AB"/>
<path d="M1033.87 761.205C978.876 726.389 917.753 734.172 894.038 742.621C890.55 756.075 909.885 762.034 962.693 771.821C1022.4 775.911 1037.01 773.74 1033.87 761.205Z" fill="#030303" stroke="black"/>
<path d="M1020 760.604C975.851 735.893 927.431 740.385 908.722 745.86C906.142 755.061 921.577 759.431 963.641 766.902C1011.1 770.554 1022.67 769.267 1020 760.604Z" fill="#363636" stroke="black"/>
<path fill-rule="evenodd" clip-rule="evenodd" d="M958.513 676.476C956.921 678.724 953.267 683.506 951.385 684.648C949.033 686.076 953.371 692.705 958.058 693.314C953.676 698.987 949.125 712.76 954.01 719.652C956.33 722.923 959.537 725.01 962.261 726.782C965.252 728.728 967.66 730.295 967.673 732.636L967.666 732.691C967.668 732.682 967.671 732.672 967.673 732.663C967.673 732.673 967.673 732.682 967.673 732.692L967.68 732.637C968.291 730.377 971.02 729.477 974.409 728.36C977.496 727.343 981.129 726.145 984.208 723.575C990.692 718.161 989.811 703.682 987.025 697.078C991.711 697.687 997.6 692.386 995.691 690.405C994.163 688.82 991.852 683.263 990.888 680.682C983.623 686.124 979.176 684.661 974.813 677.736L974.815 677.727C974.813 677.729 974.812 677.73 974.811 677.731C974.81 677.729 974.809 677.728 974.808 677.726L974.807 677.735C968.819 683.315 964.146 683.593 958.513 676.476Z" fill="#FFC617"/>
<ellipse cx="970.609" cy="709.243" rx="7.73395" ry="12.8899" transform="rotate(7.40291 970.609 709.243)" fill="#C19E06"/>
<rect x="516.546" y="930.416" width="67.562" height="18.32" rx="9.15998" transform="rotate(67.1152 516.546 930.416)" fill="black" stroke="white" stroke-width="5"/>
<mask id="path-69-inside-3_7_115" fill="white">
<path fill-rule="evenodd" clip-rule="evenodd" d="M396.725 936.162C401.627 931.986 402.216 924.627 398.041 919.725C393.865 914.822 386.506 914.233 381.604 918.408L352.572 943.135C350.062 945.273 348.683 948.245 348.494 951.294C347.918 954.272 348.498 957.47 350.364 960.159L365.471 981.919C369.143 987.209 376.408 988.521 381.698 984.848C386.988 981.176 388.299 973.911 384.627 968.621L374.961 954.698L396.725 936.162Z"/>
</mask>
<path fill-rule="evenodd" clip-rule="evenodd" d="M396.725 936.162C401.627 931.986 402.216 924.627 398.041 919.725C393.865 914.822 386.506 914.233 381.604 918.408L352.572 943.135C350.062 945.273 348.683 948.245 348.494 951.294C347.918 954.272 348.498 957.47 350.364 960.159L365.471 981.919C369.143 987.209 376.408 988.521 381.698 984.848C386.988 981.176 388.299 973.911 384.627 968.621L374.961 954.698L396.725 936.162Z" fill="black"/>
<path d="M398.041 919.725L394.234 922.967L394.234 922.967L398.041 919.725ZM396.725 936.162L399.967 939.968L399.967 939.968L396.725 936.162ZM381.604 918.408L378.362 914.602L378.362 914.602L381.604 918.408ZM352.572 943.135L355.814 946.942L355.814 946.942L352.572 943.135ZM348.494 951.294L353.403 952.244L353.465 951.926L353.485 951.603L348.494 951.294ZM350.364 960.159L354.471 957.307L354.471 957.307L350.364 960.159ZM365.471 981.919L369.578 979.068L369.578 979.068L365.471 981.919ZM381.698 984.848L378.847 980.741L381.698 984.848ZM384.627 968.621L380.52 971.472L380.52 971.472L384.627 968.621ZM374.961 954.698L371.719 950.891L368.271 953.828L370.854 957.549L374.961 954.698ZM394.234 922.967C396.619 925.767 396.283 929.97 393.483 932.355L399.967 939.968C406.971 934.002 407.813 923.487 401.847 916.483L394.234 922.967ZM384.846 922.215C387.646 919.83 391.849 920.167 394.234 922.967L401.847 916.483C395.881 909.478 385.366 908.636 378.362 914.602L384.846 922.215ZM355.814 946.942L384.846 922.215L378.362 914.602L349.33 939.329L355.814 946.942ZM353.485 951.603C353.593 949.852 354.38 948.163 355.814 946.942L349.33 939.329C345.745 942.382 343.773 946.637 343.504 950.986L353.485 951.603ZM354.471 957.307C353.405 955.771 353.073 953.953 353.403 952.244L343.585 950.345C342.764 954.591 343.591 959.17 346.257 963.01L354.471 957.307ZM369.578 979.068L354.471 957.307L346.257 963.01L361.363 984.771L369.578 979.068ZM378.847 980.741C375.825 982.839 371.676 982.09 369.578 979.068L361.363 984.771C366.61 992.329 376.991 994.203 384.55 988.956L378.847 980.741ZM380.52 971.472C382.617 974.494 381.868 978.643 378.847 980.741L384.55 988.956C392.108 983.708 393.981 973.328 388.734 965.769L380.52 971.472ZM370.854 957.549L380.52 971.472L388.734 965.769L379.069 951.846L370.854 957.549ZM393.483 932.355L371.719 950.891L378.203 958.504L399.967 939.968L393.483 932.355Z" fill="white" mask="url(#path-69-inside-3_7_115)"/>
<mask id="path-71-inside-4_7_115" fill="white">
<path fill-rule="evenodd" clip-rule="evenodd" d="M431.406 718.798C442.942 704.934 461.337 697.407 480.404 700.621C499.471 703.835 514.383 716.976 520.737 733.856C523.064 733.899 525.424 734.116 527.799 734.516C551.45 738.502 567.676 759.215 564.042 780.78C562.873 787.712 559.794 793.889 555.367 798.947C567.778 809.026 574.517 826.216 571.484 844.209C568.53 861.736 557.066 875.504 542.584 881.246C548.576 890.871 551.209 903.022 549.095 915.563C544.757 941.301 522.067 958.934 498.416 954.947C490.925 953.685 484.236 950.405 478.73 945.694C468.944 956.831 454.513 962.81 439.705 960.314C427.25 958.214 417.012 950.537 410.744 939.981C403.618 943.08 395.702 944.217 387.675 942.864C364.024 938.878 348.368 914.781 352.706 889.043C354.503 878.386 359.446 869.118 366.301 862.199C355.821 850.808 350.6 832.88 353.784 813.991C356.825 795.948 366.824 781.247 379.597 773.581C375.413 766.2 373.645 757.636 375.112 748.934C378.747 727.37 400.866 713.121 424.517 717.107C426.893 717.508 429.193 718.077 431.406 718.798Z"/>
</mask>
<path fill-rule="evenodd" clip-rule="evenodd" d="M431.406 718.798C442.942 704.934 461.337 697.407 480.404 700.621C499.471 703.835 514.383 716.976 520.737 733.856C523.064 733.899 525.424 734.116 527.799 734.516C551.45 738.502 567.676 759.215 564.042 780.78C562.873 787.712 559.794 793.889 555.367 798.947C567.778 809.026 574.517 826.216 571.484 844.209C568.53 861.736 557.066 875.504 542.584 881.246C548.576 890.871 551.209 903.022 549.095 915.563C544.757 941.301 522.067 958.934 498.416 954.947C490.925 953.685 484.236 950.405 478.73 945.694C468.944 956.831 454.513 962.81 439.705 960.314C427.25 958.214 417.012 950.537 410.744 939.981C403.618 943.08 395.702 944.217 387.675 942.864C364.024 938.878 348.368 914.781 352.706 889.043C354.503 878.386 359.446 869.118 366.301 862.199C355.821 850.808 350.6 832.88 353.784 813.991C356.825 795.948 366.824 781.247 379.597 773.581C375.413 766.2 373.645 757.636 375.112 748.934C378.747 727.37 400.866 713.121 424.517 717.107C426.893 717.508 429.193 718.077 431.406 718.798Z" fill="white"/>
<path d="M431.406 718.798L429.855 723.552L433.08 724.603L435.249 721.996L431.406 718.798ZM520.737 733.856L516.058 735.617L517.252 738.791L520.643 738.855L520.737 733.856ZM555.367 798.947L551.605 795.654L548.188 799.558L552.215 802.828L555.367 798.947ZM542.584 881.246L540.741 876.598L535.175 878.805L538.339 883.889L542.584 881.246ZM478.73 945.694L481.981 941.895L478.231 938.687L474.974 942.394L478.73 945.694ZM410.744 939.981L415.043 937.428L412.792 933.637L408.749 935.396L410.744 939.981ZM366.301 862.199L369.853 865.718L373.213 862.327L369.98 858.814L366.301 862.199ZM379.597 773.581L382.17 777.868L386.352 775.358L383.947 771.115L379.597 773.581ZM435.249 721.996C445.694 709.444 462.333 702.645 479.573 705.551L481.235 695.691C460.342 692.169 440.19 700.424 427.562 715.6L435.249 721.996ZM479.573 705.551C496.814 708.457 510.305 720.334 516.058 735.617L525.417 732.094C518.461 713.617 502.129 699.212 481.235 695.691L479.573 705.551ZM520.643 738.855C522.724 738.894 524.837 739.087 526.968 739.446L528.63 729.586C526.011 729.144 523.405 728.905 520.831 728.856L520.643 738.855ZM526.968 739.446C548.334 743.048 562.216 761.526 559.111 779.948L568.972 781.611C573.136 756.905 554.565 733.957 528.63 729.586L526.968 739.446ZM559.111 779.948C558.104 785.922 555.453 791.257 551.605 795.654L559.13 802.24C564.135 796.521 567.642 789.502 568.972 781.611L559.111 779.948ZM552.215 802.828C563.168 811.723 569.3 827.085 566.554 843.378L576.415 845.04C579.734 825.348 572.388 806.328 558.519 795.066L552.215 802.828ZM566.554 843.378C563.879 859.247 553.535 871.525 540.741 876.598L544.427 885.894C560.597 879.483 573.181 864.225 576.415 845.04L566.554 843.378ZM538.339 883.889C543.684 892.475 546.076 903.39 544.165 914.732L554.025 916.394C556.341 902.655 553.467 889.268 546.828 878.604L538.339 883.889ZM544.165 914.732C540.218 938.148 519.791 953.48 499.247 950.017L497.585 959.878C524.343 964.388 549.296 944.454 554.025 916.394L544.165 914.732ZM499.247 950.017C492.692 948.912 486.831 946.044 481.981 941.895L475.48 949.493C481.641 954.765 489.157 958.457 497.585 959.878L499.247 950.017ZM474.974 942.394C466.196 952.384 453.442 957.559 440.536 955.383L438.874 965.244C455.584 968.061 471.693 961.278 482.486 948.994L474.974 942.394ZM440.536 955.383C429.668 953.551 420.635 946.846 415.043 937.428L406.444 942.534C413.388 954.229 424.831 962.877 438.874 965.244L440.536 955.383ZM408.749 935.396C402.464 938.129 395.528 939.117 388.506 937.934L386.844 947.795C395.876 949.317 404.772 948.031 412.738 944.566L408.749 935.396ZM388.506 937.934C367.963 934.471 353.69 913.29 357.637 889.874L347.776 888.212C343.046 916.272 360.086 943.284 386.844 947.795L388.506 937.934ZM357.637 889.874C359.262 880.236 363.722 871.906 369.853 865.718L362.749 858.68C355.17 866.329 349.744 876.535 347.776 888.212L357.637 889.874ZM369.98 858.814C360.675 848.7 355.754 832.386 358.715 814.822L348.854 813.16C345.446 833.374 350.966 852.917 362.621 865.585L369.98 858.814ZM358.715 814.822C361.541 798.054 370.787 784.7 382.17 777.868L377.024 769.294C362.86 777.794 352.11 793.842 348.854 813.16L358.715 814.822ZM383.947 771.115C380.287 764.66 378.78 757.254 380.042 749.765L370.182 748.103C368.51 758.019 370.538 767.739 375.248 776.047L383.947 771.115ZM380.042 749.765C383.148 731.343 402.32 718.436 423.686 722.038L425.348 712.177C399.413 707.805 374.346 723.397 370.182 748.103L380.042 749.765ZM423.686 722.038C425.817 722.397 427.877 722.907 429.855 723.552L432.956 714.045C430.509 713.247 427.968 712.618 425.348 712.177L423.686 722.038Z" fill="black" mask="url(#path-71-inside-4_7_115)"/>
<path d="M432.001 744.739C420.262 722.169 382.924 743.88 423.094 751.475" stroke="black" stroke-width="5" stroke-linecap="round"/>
<path d="M520.282 758.926C538.771 741.451 566.929 774.202 526.489 768.21" stroke="black" stroke-width="5" stroke-linecap="round"/>
<path fill-rule="evenodd" clip-rule="evenodd" d="M460.895 780.007L421.069 763.489L440.028 789.336L463.442 783.478L477.765 785.892L497.966 799.102L524.35 780.898L481.309 783.448L460.895 780.007Z" fill="black"/>
<path d="M460.674 805.171C460.674 805.171 463.946 808.812 467.556 810.45M467.556 810.45C471.504 810.085 475.788 807.719 475.788 807.719M467.556 810.45C466.765 815.141 465.531 822.464 465.531 822.464L457.974 821.19C462.705 821.301 472.855 822.051 475.607 824.162" stroke="black" stroke-width="3" stroke-linecap="round" stroke-linejoin="round"/>
<path d="M501.67 824.699L562.505 846.875C564.106 847.459 564.9 849.258 564.252 850.835L560.722 859.419C560.14 860.835 558.584 861.586 557.113 861.16L533.84 854.424C532.574 856.703 529.776 861.523 528.703 862.568C527.362 863.875 524.721 863.312 521.422 862.342C518.124 861.373 514.847 858.814 512.494 856.4C511.028 854.896 509.427 856.401 508.404 857.969C507.88 858.773 507.819 859.764 507.74 860.72C507.414 864.657 503.177 865.115 502.704 865.941C502.027 867.124 502.117 870.436 499.197 870.928C495.93 871.479 492.732 875.158 489.801 873.614C484.604 870.876 478.846 867.826 477.266 866.938C474.374 865.312 486.175 853.81 493.967 845.171C496.701 842.139 497.384 839.886 497.036 838.263C496.395 835.278 493.677 832.236 494.679 829.352L495.235 827.755C496.151 825.119 499.048 823.744 501.67 824.699Z" fill="black" stroke="black"/>
<rect x="434.553" y="829.169" width="67" height="17.4041" rx="8.70205" transform="rotate(12.8166 434.553 829.169)" fill="black" stroke="white" stroke-width="3"/>
</g>
<defs>
<filter id="filter0_f_7_115" x="224" y="11" width="1593" height="1593" filterUnits="userSpaceOnUse" color-interpolation-filters="sRGB">
<feFlood flood-opacity="0" result="BackgroundImageFix"/>
<feBlend mode="normal" in="SourceGraphic" in2="BackgroundImageFix" result="shape"/>
<feGaussianBlur stdDeviation="20" result="effect1_foregroundBlur_7_115"/>
</filter>
<filter id="filter1_f_7_115" x="91.928" y="69.4264" width="20.3115" height="21.7829" filterUnits="userSpaceOnUse" color-interpolation-filters="sRGB">
<feFlood flood-opacity="0" result="BackgroundImageFix"/>
<feBlend mode="normal" in="SourceGraphic" in2="BackgroundImageFix" result="shape"/>
<feGaussianBlur stdDeviation="2.5" result="effect1_foregroundBlur_7_115"/>
</filter>
<filter id="filter2_f_7_115" x="238.351" y="208.465" width="20.3114" height="21.7829" filterUnits="userSpaceOnUse" color-interpolation-filters="sRGB">
<feFlood flood-opacity="0" result="BackgroundImageFix"/>
<feBlend mode="normal" in="SourceGraphic" in2="BackgroundImageFix" result="shape"/>
<feGaussianBlur stdDeviation="2.5" result="effect1_foregroundBlur_7_115"/>
</filter>
<filter id="filter3_f_7_115" x="38" y="208" width="20.3115" height="21.7829" filterUnits="userSpaceOnUse" color-interpolation-filters="sRGB">
<feFlood flood-opacity="0" result="BackgroundImageFix"/>
<feBlend mode="normal" in="SourceGraphic" in2="BackgroundImageFix" result="shape"/>
<feGaussianBlur stdDeviation="2.5" result="effect1_foregroundBlur_7_115"/>
</filter>
<filter id="filter4_f_7_115" x="153" y="610" width="20.3115" height="21.783" filterUnits="userSpaceOnUse" color-interpolation-filters="sRGB">
<feFlood flood-opacity="0" result="BackgroundImageFix"/>
<feBlend mode="normal" in="SourceGraphic" in2="BackgroundImageFix" result="shape"/>
<feGaussianBlur stdDeviation="2.5" result="effect1_foregroundBlur_7_115"/>
</filter>
<filter id="filter5_f_7_115" x="405.397" y="90.6357" width="20.3115" height="21.7829" filterUnits="userSpaceOnUse" color-interpolation-filters="sRGB">
<feFlood flood-opacity="0" result="BackgroundImageFix"/>
<feBlend mode="normal" in="SourceGraphic" in2="BackgroundImageFix" result="shape"/>
<feGaussianBlur stdDeviation="2.5" result="effect1_foregroundBlur_7_115"/>
</filter>
<filter id="filter6_f_7_115" x="119" y="357" width="20.3115" height="21.783" filterUnits="userSpaceOnUse" color-interpolation-filters="sRGB">
<feFlood flood-opacity="0" result="BackgroundImageFix"/>
<feBlend mode="normal" in="SourceGraphic" in2="BackgroundImageFix" result="shape"/>
<feGaussianBlur stdDeviation="2.5" result="effect1_foregroundBlur_7_115"/>
</filter>
<filter id="filter7_f_7_115" x="33" y="500" width="20.3115" height="21.783" filterUnits="userSpaceOnUse" color-interpolation-filters="sRGB">
<feFlood flood-opacity="0" result="BackgroundImageFix"/>
<feBlend mode="normal" in="SourceGraphic" in2="BackgroundImageFix" result="shape"/>
<feGaussianBlur stdDeviation="2.5" result="effect1_foregroundBlur_7_115"/>
</filter>
<filter id="filter8_f_7_115" x="1805" y="315" width="20.3115" height="21.783" filterUnits="userSpaceOnUse" color-interpolation-filters="sRGB">
<feFlood flood-opacity="0" result="BackgroundImageFix"/>
<feBlend mode="normal" in="SourceGraphic" in2="BackgroundImageFix" result="shape"/>
<feGaussianBlur stdDeviation="2.5" result="effect1_foregroundBlur_7_115"/>
</filter>
<filter id="filter9_f_7_115" x="1785" y="548" width="20.3115" height="21.783" filterUnits="userSpaceOnUse" color-interpolation-filters="sRGB">
<feFlood flood-opacity="0" result="BackgroundImageFix"/>
<feBlend mode="normal" in="SourceGraphic" in2="BackgroundImageFix" result="shape"/>
<feGaussianBlur stdDeviation="2.5" result="effect1_foregroundBlur_7_115"/>
</filter>
<filter id="filter10_f_7_115" x="1316.93" y="64.7132" width="20.3115" height="21.7829" filterUnits="userSpaceOnUse" color-interpolation-filters="sRGB">
<feFlood flood-opacity="0" result="BackgroundImageFix"/>
<feBlend mode="normal" in="SourceGraphic" in2="BackgroundImageFix" result="shape"/>
<feGaussianBlur stdDeviation="2.5" result="effect1_foregroundBlur_7_115"/>
</filter>
<filter id="filter11_f_7_115" x="1710" y="191" width="20.3115" height="21.7829" filterUnits="userSpaceOnUse" color-interpolation-filters="sRGB">
<feFlood flood-opacity="0" result="BackgroundImageFix"/>
<feBlend mode="normal" in="SourceGraphic" in2="BackgroundImageFix" result="shape"/>
<feGaussianBlur stdDeviation="2.5" result="effect1_foregroundBlur_7_115"/>
</filter>
<filter id="filter12_f_7_115" x="1580.91" y="279.163" width="20.3115" height="21.783" filterUnits="userSpaceOnUse" color-interpolation-filters="sRGB">
<feFlood flood-opacity="0" result="BackgroundImageFix"/>
<feBlend mode="normal" in="SourceGraphic" in2="BackgroundImageFix" result="shape"/>
<feGaussianBlur stdDeviation="2.5" result="effect1_foregroundBlur_7_115"/>
</filter>
<filter id="filter13_f_7_115" x="1708.77" y="60" width="20.3115" height="21.7829" filterUnits="userSpaceOnUse" color-interpolation-filters="sRGB">
<feFlood flood-opacity="0" result="BackgroundImageFix"/>
<feBlend mode="normal" in="SourceGraphic" in2="BackgroundImageFix" result="shape"/>
<feGaussianBlur stdDeviation="2.5" result="effect1_foregroundBlur_7_115"/>
</filter>
<filter id="filter14_f_7_115" x="1858" y="138" width="20.3115" height="21.7829" filterUnits="userSpaceOnUse" color-interpolation-filters="sRGB">
<feFlood flood-opacity="0" result="BackgroundImageFix"/>
<feBlend mode="normal" in="SourceGraphic" in2="BackgroundImageFix" result="shape"/>
<feGaussianBlur stdDeviation="2.5" result="effect1_foregroundBlur_7_115"/>
</filter>
<filter id="filter15_f_7_115" x="1483.98" y="102.419" width="20.3115" height="21.7829" filterUnits="userSpaceOnUse" color-interpolation-filters="sRGB">
<feFlood flood-opacity="0" result="BackgroundImageFix"/>
<feBlend mode="normal" in="SourceGraphic" in2="BackgroundImageFix" result="shape"/>
<feGaussianBlur stdDeviation="2.5" result="effect1_foregroundBlur_7_115"/>
</filter>
<linearGradient id="paint0_linear_7_115" x1="866.939" y1="-3.69109e-05" x2="873.553" y2="628.151" gradientUnits="userSpaceOnUse">
<stop stop-color="#07215A"/>
<stop offset="1" stop-color="#0C578E"/>
</linearGradient>
<linearGradient id="paint1_linear_7_115" x1="866.939" y1="-3.69109e-05" x2="873.553" y2="628.151" gradientUnits="userSpaceOnUse">
<stop stop-color="#07215A"/>
<stop offset="1" stop-color="#0C578E"/>
</linearGradient>
<radialGradient id="paint2_radial_7_115" cx="0" cy="0" r="1" gradientUnits="userSpaceOnUse" gradientTransform="translate(1021 808) rotate(-90) scale(757)">
<stop stop-color="#D0F0F5"/>
<stop offset="0.876" stop-color="#ADE8F2"/>
<stop offset="1" stop-color="#5BA3AF"/>
</radialGradient>
<linearGradient id="paint3_linear_7_115" x1="866.939" y1="-3.69109e-05" x2="873.553" y2="628.151" gradientUnits="userSpaceOnUse">
<stop stop-color="#07215A"/>
<stop offset="1" stop-color="#0C578E"/>
</linearGradient>
<linearGradient id="paint4_linear_7_115" x1="1222.02" y1="485" x2="1241.88" y2="1438.73" gradientUnits="userSpaceOnUse">
<stop stop-color="#052362"/>
<stop offset="1" stop-color="#114A81"/>
</linearGradient>
<linearGradient id="paint5_linear_7_115" x1="833.074" y1="196" x2="837.686" y2="710.169" gradientUnits="userSpaceOnUse">
<stop stop-color="#07215A"/>
<stop offset="1" stop-color="#0C578E"/>
</linearGradient>
<linearGradient id="paint6_linear_7_115" x1="384.683" y1="771.017" x2="376.216" y2="1290.81" gradientUnits="userSpaceOnUse">
<stop stop-color="#052362"/>
<stop offset="1" stop-color="#114A81"/>
</linearGradient>
<linearGradient id="paint7_linear_7_115" x1="833.074" y1="196" x2="837.686" y2="710.169" gradientUnits="userSpaceOnUse">
<stop stop-color="#07215A"/>
<stop offset="1" stop-color="#0C578E"/>
</linearGradient>
<linearGradient id="paint8_linear_7_115" x1="1329.88" y1="827.381" x2="1321.69" y2="1299.44" gradientUnits="userSpaceOnUse">
<stop stop-color="#052362"/>
<stop offset="1" stop-color="#114A81"/>
</linearGradient>
<linearGradient id="paint9_linear_7_115" x1="866.939" y1="-3.76582e-05" x2="850.404" y2="1079.82" gradientUnits="userSpaceOnUse">
<stop stop-color="#07215A"/>
<stop offset="1" stop-color="#0C578E"/>
</linearGradient>
<linearGradient id="paint10_linear_7_115" x1="771.084" y1="965.112" x2="771.084" y2="1114.93" gradientUnits="userSpaceOnUse">
<stop stop-color="#062656"/>
<stop offset="1" stop-color="#093866"/>
</linearGradient>
<linearGradient id="paint11_linear_7_115" x1="866.939" y1="-3.76582e-05" x2="850.404" y2="1079.82" gradientUnits="userSpaceOnUse">
<stop stop-color="#07215A"/>
<stop offset="1" stop-color="#0C578E"/>
</linearGradient>
<linearGradient id="paint12_linear_7_115" x1="956.837" y1="924.185" x2="959.993" y2="1023.97" gradientUnits="userSpaceOnUse">
<stop stop-color="#011E46"/>
<stop offset="1" stop-color="#052E56"/>
</linearGradient>
<linearGradient id="paint13_linear_7_115" x1="626.939" y1="1080" x2="626.939" y2="991.8" gradientUnits="userSpaceOnUse">
<stop stop-color="#010101"/>
<stop offset="1" stop-color="#212121"/>
</linearGradient>
<linearGradient id="paint14_linear_7_115" x1="866.939" y1="-3.69109e-05" x2="873.553" y2="628.151" gradientUnits="userSpaceOnUse">
<stop stop-color="#07215A"/>
<stop offset="1" stop-color="#0C578E"/>
</linearGradient>
</defs>
</svg>
