<svg width="237" height="82" viewBox="0 0 237 82" fill="none" xmlns="http://www.w3.org/2000/svg">
<path d="M2.83122e-07 42.2C2.83122e-07 37.7 0.4 33.2 1.2 28.7C1.2 28.5 1.5 27.9 1.5 27.7L3 22.9C3 22.6 3.5 21.9 3.5 21.7L3.8 21.1C4.6 18.8 5.7 16.7 6.9 14.6C7.1 14.1 8 12 8 11.8C8.5 10.5 8.9 9.6 9.7 8.1C10.1 7.9 10.3 7.9 10.8 7.9H11.2C13.2 8.7 14.6 10.2 15.9 11.8C16.5 12.3 16.7 13.1 16.7 13.6C16.7 14.8 15.7 15.7 15 16.5C14.4 18 13.8 19.8 13.2 21.7C12.8 22.2 11.8 24.2 11.8 24.5V24.9C14.6 24.2 17.7 22.2 20.4 21.1C20.6 21.1 22.6 19.8 22.8 19.8C24.8 19 26.7 18.7 27.5 16.5C28 15.1 29 12.4 29 11V10.8C29 10.5 28.9 8.5 28.9 8.1V7.7C29.2 6.7 30 5.7 31.1 5H31.4C32.4 5 38.7 7.6 38.7 8.1V8.5L38.4 9.6V11C38.4 11.2 37.9 12 37.9 12.3V12.4C37.7 14.3 37.3 16.5 36.8 18.5C36.3 20.3 35.4 21.9 34.6 23.6L34.4 24.5C33.6 26.8 32.1 30.1 30.5 32.2C30.5 32.5 29.8 33.2 29.5 33.4L27.2 36.1C26.1 37.5 25.6 39.6 24.5 41.1C23.3 43 20 46.8 17.7 47.9C15.7 49.2 13.6 49.7 11.3 50.1C11.2 50.1 10.1 50.5 9.5 50.5H9C7.7 49.2 6.9 47.9 5.9 46.3L5.7 46.2V47.4C5.4 48.6 4 48.6 3 49.5C2.7 49.5 2.4 49.9 2.4 50.1L1.9 50.9C1.2 50.9 0.7 48.7 0.4 47.9C2.83122e-07 46.2 2.83122e-07 44.3 2.83122e-07 42.2ZM7.2 42.9C8.2 43.2 9.5 43.5 10.4 43.5C12.1 43.5 19.5 40.8 20.6 39.2C21.4 38.3 21.2 36.3 21.4 35.2C21.4 35 22 32.5 22.2 31.8C22.5 30.7 22.8 29.7 22.8 28.7C22.2 28.7 22 29.1 21.2 29.5C20.2 29.9 14.8 32.8 13.6 33.2L13.4 33.4C12.8 33.7 10.8 35 10.3 35.2H9.7L9 35C9 35 8.9 35.2 8.9 35.4C8.9 36.1 8.2 38 8.2 38.5V39.8L8 39.9C8 40.4 7.7 41.9 7.7 42.1L7.2 42.4V42.9ZM19.5 75.7V73.4L20 72.9L19.5 72V69.6L20 68.9V68.4C20.2 65.5 21.2 62.8 22.2 60.2C22.5 59.7 22.8 58.5 22.8 58.4C23.6 55.6 24.9 53.1 25.9 50.9L26.1 50.7C26.9 49.5 29.8 44.3 31.1 44.3H31.3C31.4 44.3 32.2 44.5 32.2 44.5L34.6 46.8H34.7C35.8 46.8 38.4 46.2 38.9 45.2V37.4C38.9 36.9 39.3 34.2 39.5 33.2C39.5 33 40.1 31.4 40.1 31.1C40.3 30.1 40.1 29.9 40.6 28.9C41.3 27.5 41.5 25.6 42.2 24C42.2 23.6 42.4 23.2 42.4 23.2L42.6 22.9V22.1C42.6 21.7 44.2 19 43.9 18.7C44.6 16.5 45.6 14.3 46.5 12.3C46.5 12 47.5 9.6 47.5 9.1C47.7 8.5 47.9 7.2 48.4 6.49999C48.4 5.9 48.7 3.19999 48.7 2.6C49 0.999999 49.3 0.0999987 51.3 0.0999987C53.2 0.0999987 54.7 1.7 56.1 3.19999C57 4.59999 57 6.49999 57 8.1C57 10 56.5 11.5 56.1 13.2C55.7 14.3 55.4 14.8 54.8 15.7L54.7 17C54.7 17.3 54 19.7 53.7 20.1C53.2 21.7 52.3 23.2 52.3 24.9C53 24.9 55.4 23.6 56.3 23.4C56.5 23.4 58.8 22.6 58.9 22.6L63.3 21.1C63.5 21.1 66.1 20.3 66.4 20.3L67.1 20.1C69.4 19.7 74.4 18.5 74.4 18.5L75 18.7L71.9 20.1C71.7 20.1 70.9 20.9 70.9 20.9L70.6 21.7C70.4 22.1 69.9 22.2 69.4 22.6L68.1 23.6C67.6 24 66.6 25.2 66.4 25.3L65.8 26.4C65.6 26.6 64.9 27.9 64.6 28.1C64.9 28.7 64.1 29.1 63.9 29.5C63.9 29.7 63.1 30.1 63.1 30.4L62.8 30.9C61.2 32.2 58.9 32.8 57 33.4L56.5 33.7H56.3C54.8 33.7 51 31.8 50 30.9L49.8 31.4C49.8 31.8 48.7 35 48.7 35.2L48.4 36.1C48.4 36.3 48.2 36.9 48.2 36.9V37.7C47.9 38.8 47.2 39.6 46.9 40.6C46.9 40.8 46.7 41.9 46.7 42.1L46.5 42.2L46.1 43H46.9C49.8 43 52.4 42.1 55.6 42.1H56.1L56.8 42.2C59.2 43 60.9 43.2 61.8 45.9V46.3C61.2 48.4 60.1 49.9 58.9 51.3L58.8 51.7L58 52.1L57.8 52.9C57.6 53.8 57.3 53.4 56.5 54L54 57.6L53.4 58.5C53 58.7 53.4 58.9 52.3 59.3L52 59.7C51.5 60.5 51 61.1 50.1 61.7C49.3 62.3 48.2 63.2 47.6 64.2H47.8C49.1 64.2 50.1 63.4 51 63.2C53.2 62.8 55.4 62.5 57.6 62.5H59.2C59.2 62.5 60.5 62.8 61.1 62.8C62.8 63.1 63.3 63.2 63.3 65.3V65.6C63.3 66.1 62.5 66.1 62.3 66.1V66.3C62.3 66.4 62.3 66.9 62.5 66.9C62.1 67.9 61.1 67.9 60.1 68.1C59.9 68.1 58 68.8 57.8 68.8C57.8 68.9 57.3 69.6 57.3 69.6H56.8L56.1 70L54.7 70.4C54.5 70.4 53.4 71.2 53.2 71.2C52.4 71.3 50 72.4 49.8 72.7L48.7 72.9L48.2 73.4L47.5 73.7L46.7 74.1L41.3 76.2L41.2 76.7C40.8 76.9 40 76.7 39.5 76.9C38.8 77.2 38.4 77.9 37.5 77.9H36.9C36.9 77.9 36.5 77.6 36.3 77.4C34.3 76 34 74.5 34 72C34 71.3 34 69.6 34.5 68.8L35.1 68.6L35.3 68.4C36 67.6 37.5 65.6 37.5 65.6C37.7 65.5 38.6 63.4 38.8 63.2C39.3 62.3 40.2 61.1 40.8 60.2L41 59.5C41.5 58.4 43.5 56.2 44.2 55.2L44.5 54.6C45 53.7 45.7 54.2 45.7 53V52.8C45.5 52.8 45 53.2 44.7 53.2C44.5 53.2 43.2 53.7 42.9 53.7C42.4 54 41.9 54.2 41.4 54.4C40.2 55 37.5 55.1 36.3 55.5C35.8 55.7 35.3 56.3 34.7 56.3H34.3C34 56.3 33 55.7 32.7 55.7H32.4C32.4 56 32 56.7 32 57.1L31.3 58.5C30.6 59.5 30.6 60.2 30.3 61.1L30 61.6V62.5C30 63.4 29.5 64.5 29 65.3L28.9 65.5L29 66.3L28.3 66.4V68.4C28 68.6 27.5 69.4 27.5 69.7L27.7 70.4V70.5C27.7 71.2 27.7 71.2 27.2 71.7V74.3L27.5 74.9V75.1L27.2 75.4V77.9C27.2 78.6 25.8 80.5 24.9 80.5L23.8 80.2H23.6C23.6 80.9 23.8 80.9 23.8 81.5C23.8 81.7 23.4 81.9 23.3 81.9C21.7 81.9 20.4 80.5 20 79.2C19.3 78.2 19.5 76.7 19.5 75.7ZM77.3016 46.3V44C77.3016 43.4 77.6016 40.8 77.6016 40.7C77.6016 40.4 78.5016 39 78.5016 38.8L78.9016 37.7C79.2016 35.8 80.8016 34 81.6016 32.5C83.2016 29.9 84.8016 27.5 86.7016 25.3L88.8016 23C88.8016 23 89.5016 22.1 89.8016 21.9L92.6016 17.8C93.8016 15.8 95.7016 14.1 96.7016 11.8C97.7016 10 96.3016 6.49999 99.4016 6.49999H100.202C100.802 6.8 103.502 8.7 104.202 9C106.702 10.5 108.202 12.4 109.902 14.7L110.402 15.4C110.602 15.8 112.002 17.3 112.002 17.3C112.002 17.3 112.302 18.5 112.302 18.8C112.602 20.6 112.902 22.8 112.902 24.5V25.9C112.902 28.7 112.602 31.8 111.102 34.3C110.602 34.6 108.902 37.5 108.502 37.7L108.002 38.8C108.002 39 106.402 39.9 106.402 40.4L106.102 41.2C105.802 42.2 104.602 44.4 103.502 44.9C102.802 45.3 98.2016 48.7 97.7016 49L96.3016 50.2L94.8016 50.9C93.8016 51.2 92.9016 51.8 91.9016 52.1C91.7016 52.1 90.1016 52.4 89.8016 52.4L89.5016 52.8H88.2016L87.6016 53.4H86.1016C85.7016 53.4 83.2016 54 82.9016 54H81.6016L80.8016 53.4C77.9016 51.8 77.3016 49 77.3016 46.3ZM94.1016 74C94.1016 72.5 94.6016 71.3 95.3016 69.8C96.3016 68.4 98.5016 64.9 98.5016 64.9L99.4016 64.3C99.7016 64.3 103.502 60.3 105.002 58.7L107.002 56.5L113.302 50.2C113.802 49.7 114.802 48.4 115.102 47.5L115.502 46.4L116.002 46.3C116.002 46.3 117.302 45.3 117.602 44.9C117.902 44.6 117.602 44.6 118.202 44.6C118.602 44.6 118.902 44.6 119.202 44.9C119.502 45.3 121.102 46.8 121.602 47.2C125.402 50.6 129.502 51.6 131.602 56.8C132.102 57.4 132.502 59.3 132.502 59.3V64.9C132.502 65.3 132.302 66.5 132.102 66.9C131.402 67.9 130.802 67.9 130.102 68.4L129.502 69.4C127.602 71.6 124.702 72.5 122.302 74C120.802 75 117.102 78.1 115.502 77.4C115.502 77.8 115.102 78.4 115.102 78.4L113.802 78.7C112.902 79 112.002 79.6 111.102 79.6H109.502L109.102 80C108.502 80.3 107.502 80.3 107.002 80.3L106.402 80.6C106.102 80.6 105.502 80.9 105.502 80.9H102.802L101.902 81.2H100.902C98.2016 81.2 96.7016 79.6 95.1016 77.8C94.1016 76.9 94.1016 75.3 94.1016 74ZM120.902 35.1L121.202 32.3C121.202 32 121.402 31 121.502 30.7C122.002 27.9 122.102 24.8 122.602 22.1C122.702 21.2 123.902 16.3 124.402 14.9C124.702 12.7 125.502 10.8 125.702 8.5L125.802 7.6C125.802 7.1 124.602 5.4 124.602 5C124.602 5 124.402 3.1 124.502 2.4V2.1C124.502 1.2 125.902 0.999999 126.802 1.1C129.102 1.2 129.202 1.79999 131.002 2.79999C131.402 2.79999 132.502 3.9 132.802 3.9L133.102 4.8C133.902 6.8 134.502 7.7 134.402 10L133.902 17.1H134.302C135.302 17 140.202 15.9 141.402 15.9L147.002 16.5C147.002 16.5 148.602 16.7 149.402 17.3C149.602 17.3 150.202 17.5 150.102 17.9C150.102 18.8 149.402 19.5 149.102 20L146.402 22.2H145.802C144.802 22.1 145.302 21.7 144.502 21.4C142.402 21.3 140.502 21.7 138.702 22.1C138.302 22.1 136.902 22.6 136.702 22.6H136.402C135.002 22.5 134.302 22.1 133.102 22.1C132.702 22.1 132.402 22.1 132.402 22.2L129.902 31C129.902 31.9 129.202 35.3 129.202 36.3L128.902 36.5L128.602 40.6C128.602 40.8 128.302 43.1 127.802 43.9C127.602 44.9 127.702 45.5 126.502 45.6C126.102 45.6 125.202 45.5 125.202 45.5V47.6L124.302 47.5C124.302 47.5 123.002 46.2 122.402 45.5C120.102 42.7 120.602 38.5 120.902 35.1ZM130.502 32.2C130.502 31.5 131.402 31.1 132.102 31.1L134.502 31.5C135.802 31.5 137.402 31.4 138.702 31.2C142.102 30.8 145.402 30.7 148.502 31L152.502 31.1C152.802 31.1 154.702 31.5 155.002 31.5C155.202 31.5 155.802 32 155.802 32V32.6L156.202 33.2V33.5L155.402 33.9C155.102 33.7 153.902 34.2 153.402 34.2L152.702 34.5C152.302 35 148.902 35.9 148.702 36.2C147.402 36.7 145.702 37.5 144.702 38.9C141.502 39.6 139.102 39.7 135.802 40.1L135.602 40C135.302 40 134.702 39.8 134.702 39.8L130.902 35.4C130.302 34.7 130.402 33.1 130.502 32.2ZM88.8016 41.7V42.1L87.9016 43L88.5016 43.4C92.9016 43.4 97.0016 41.2 100.802 39C102.602 37.7 102.602 34 103.302 32.1L103.602 26.8C103.602 26.2 103.502 23.5 103.502 23.5L102.602 21.9L102.502 20.4L101.902 21.2L100.302 23.7C100.102 24.5 99.5016 25.3 99.3016 25.6L96.9016 29.2L92.6016 33.9C92.3016 34.2 91.9016 34.5 91.9016 35L91.3016 36.1L90.7016 37.4L89.2016 39.1L88.8016 41.7ZM106.802 70.6C106.802 71 107.402 71.6 107.902 71.6H111.102C112.002 71.6 113.302 71.3 114.202 70.9C117.602 70.3 121.302 69.4 124.502 67.9C124.702 67.4 124.702 67.4 124.702 67.2V66.5C124.702 66.2 124.302 64.9 124.302 64.7C124.302 64.3 123.202 60.7 123.202 60.3C123.202 60.3 122.002 57.8 121.602 57.4L120.902 56.1C120.902 56.1 120.302 57.7 120.302 58L120.102 58.6C120.102 58.9 118.602 59.9 118.602 60.2L116.702 61.7C116.702 62 116.002 62.7 116.002 63.1L115.002 63.3L114.802 64L114.202 64.2L110.602 66.5H110.402C110.102 66.5 110.102 67.1 109.702 67.3L108.902 68.1C108.202 68.7 106.802 70 106.802 70.6ZM223.254 45.6L221.154 37.8L220.254 38.4L218.654 38.9L217.954 39.5L216.554 40.2C216.054 40.6 213.554 42.1 210.954 44.3C210.954 44.6 210.054 45.2 210.054 45.2L209.454 45.4C208.954 46 208.354 47.1 207.654 47.3H206.354L205.454 47.6H203.854C201.654 45.6 200.154 43.5 198.854 41.1L198.654 40.2L198.054 39.7V39.1C198.054 38.4 199.354 37.3 200.054 36.7C202.454 33 203.354 28.2 204.254 24.2C205.454 20.3 206.554 16.8 207.954 13.3C208.354 12.1 208.154 11.3 209.854 11.3C210.554 11.3 211.154 11.6 212.054 12.5C213.554 13.8 216.354 15.5 216.354 17.9C216.354 19.3 215.754 19.8 215.254 20.9C215.254 21.2 214.654 22.8 214.454 23.3L212.254 31.3C213.554 31.3 214.454 30.2 215.554 29.7C217.454 28.5 218.054 28.4 219.454 26.8C221.354 23.5 221.854 19.8 222.754 17.4C224.354 14.4 225.254 13.1 225.954 9.69999L226.254 8.79999V8.5C226.254 7.9 225.954 7.9 225.954 7.2C225.954 6.8 226.554 5.99999 226.754 5.6L227.954 5.49999C228.154 5.49999 229.854 4 230.054 3.8C230.354 3.5 230.854 3.19999 230.854 3.19999H231.154C234.154 3.19999 236.554 5.3 236.554 8.5C236.554 11.3 236.054 13.3 234.954 16.3C234.954 16.6 234.054 17.7 234.054 17.9C233.454 19.3 233.454 20.9 232.754 22.3L231.654 28C231.654 28.2 231.054 28.9 231.054 29L230.854 30.4C230.854 30.7 230.254 31.4 230.254 31.9C229.754 33.1 229.254 35.4 229.154 37C229.154 37.6 228.854 41.3 228.854 41.9C228.854 42.1 228.454 43.2 228.454 43.5C228.454 43.8 227.554 46.5 227.554 46.7L226.854 47.8V48.4C226.854 49.5 227.554 50 227.554 51.1C227.554 51.9 226.854 52.9 225.854 52.9H225.654C223.854 51.9 223.854 49.8 223.654 48.3C223.654 47.8 223.254 46.5 223.254 46.2V45.6ZM183.154 25.9C183.154 25.9 181.654 26.6 181.454 26.6L180.654 26.2C178.854 26.2 178.354 26.6 177.254 27.3L169.754 29.6C169.454 29.6 166.854 28.8 165.754 28.4C165.354 28.4 164.954 27.9 164.954 27.9C164.654 27.9 163.654 26.5 163.154 26C162.654 25.2 161.654 23.8 161.654 23.8C161.654 23.8 161.454 22 161.454 21.3V20.6C162.954 18.7 164.454 17.7 166.854 17.1C170.454 15.7 174.654 15.3 178.554 14.7C182.754 14.1 183.654 12.1 188.054 12.3C192.854 12.5 196.154 14.1 199.354 17.9L199.254 18.6L199.454 19.7C199.454 20.1 198.754 21.9 198.354 22.3C197.054 24.4 197.654 25.1 196.254 27.4C195.454 28.9 193.654 29.5 193.154 31.3C188.454 36.3 185.954 41.2 181.654 46.5C180.854 47.3 179.954 47.6 179.054 48.6C179.054 49 177.754 50.6 177.754 50.8C177.454 51.1 175.554 52.6 175.354 53C175.354 53.2 174.654 54.2 174.654 54.8L170.454 58.6H169.954L170.254 57.2C171.054 50.8 172.854 45.1 175.854 39.7C175.854 39.2 176.954 37.5 177.354 36.7C178.954 33.9 181.554 29.1 183.154 26.5V25.9ZM193.854 76.3V75.3C194.054 73.4 195.754 71.3 196.954 69.6C197.954 68.1 198.654 66.6 199.554 65.1C200.654 63.1 202.554 61.6 203.454 59.6L207.254 54.8C207.454 54.4 208.654 53.7 208.854 53.3L209.754 52.4C210.454 51.5 212.154 49.9 213.254 48.7H213.754C215.654 48.7 216.354 51.9 217.054 53.3C217.054 53.7 218.354 54.4 218.354 54.8C220.454 57.2 222.154 59.9 222.154 63.4V64L221.954 64.8C221.954 65.1 221.354 67 221.354 67.2C220.954 68.8 219.754 70.5 218.754 71.8C212.654 79.2 206.954 81.4 197.754 81.4C194.954 81.4 193.854 78.7 193.854 76.3ZM203.754 74.9C203.754 75.8 203.754 75.8 204.554 75.8C208.854 75.8 212.354 72.1 215.654 69.6C215.954 69.4 215.954 68.6 215.954 68.3C215.954 66.4 214.854 64.5 214.354 62.9L213.954 61.6C213.954 61.3 213.754 60.5 213.754 60.5H213.254C213.254 60.5 212.154 61.3 211.954 61.8L211.354 62.6C211.054 62.9 210.254 63.7 210.254 64C210.254 64.2 208.854 65.1 208.854 65.3L208.254 66.4L207.854 67.2C207.854 67.5 206.654 68.3 206.654 68.6L206.454 69.4L205.354 70.5L204.954 71.3C204.554 72.5 203.754 73.5 203.754 74.9Z" fill="black"/>
</svg>
