<svg width="220" height="301" viewBox="0 0 220 301" fill="none" xmlns="http://www.w3.org/2000/svg">
<rect x="155.951" y="227.87" width="67.562" height="18.32" rx="9.15998" transform="rotate(80.7421 155.951 227.87)" fill="black" stroke="black" stroke-width="5"/>
<rect x="2.06524" y="2.86963" width="67.562" height="18.32" rx="9.15998" transform="matrix(-0.160879 0.986974 0.986974 0.160879 64.2391 225.37)" fill="black" stroke="black" stroke-width="5"/>
<mask id="path-3-inside-1_28_70" fill="white">
<path fill-rule="evenodd" clip-rule="evenodd" d="M60.7197 26.0686C69.791 10.4794 86.6794 0 106.015 0C125.352 0 142.24 10.4794 151.311 26.0685C153.613 25.7247 155.976 25.546 158.385 25.546C182.369 25.546 201.813 43.2737 201.813 65.1421C201.813 72.1727 199.803 78.7753 196.279 84.4984C210.192 92.3741 219.695 108.206 219.695 126.452C219.695 144.226 210.679 159.708 197.352 167.778C204.86 176.273 209.477 187.817 209.477 200.535C209.477 226.636 190.033 247.795 166.049 247.795C158.452 247.795 151.311 245.672 145.099 241.942C137.3 254.551 124.063 262.845 109.046 262.845C96.4152 262.845 85.0436 256.977 77.108 247.609C70.5967 251.849 62.9798 254.286 54.8399 254.286C30.8553 254.286 11.4119 233.127 11.4119 207.026C11.4119 196.218 14.7457 186.258 20.3553 178.296C8.1276 168.805 0 151.995 0 132.839C0 114.541 7.41587 98.383 18.7374 88.7006C13.3842 82.1172 10.218 73.9668 10.218 65.1421C10.218 43.2737 29.6614 25.546 53.646 25.546C56.0547 25.546 58.4177 25.7248 60.7197 26.0686Z"/>
</mask>
<path fill-rule="evenodd" clip-rule="evenodd" d="M60.7197 26.0686C69.791 10.4794 86.6794 0 106.015 0C125.352 0 142.24 10.4794 151.311 26.0685C153.613 25.7247 155.976 25.546 158.385 25.546C182.369 25.546 201.813 43.2737 201.813 65.1421C201.813 72.1727 199.803 78.7753 196.279 84.4984C210.192 92.3741 219.695 108.206 219.695 126.452C219.695 144.226 210.679 159.708 197.352 167.778C204.86 176.273 209.477 187.817 209.477 200.535C209.477 226.636 190.033 247.795 166.049 247.795C158.452 247.795 151.311 245.672 145.099 241.942C137.3 254.551 124.063 262.845 109.046 262.845C96.4152 262.845 85.0436 256.977 77.108 247.609C70.5967 251.849 62.9798 254.286 54.8399 254.286C30.8553 254.286 11.4119 233.127 11.4119 207.026C11.4119 196.218 14.7457 186.258 20.3553 178.296C8.1276 168.805 0 151.995 0 132.839C0 114.541 7.41587 98.383 18.7374 88.7006C13.3842 82.1172 10.218 73.9668 10.218 65.1421C10.218 43.2737 29.6614 25.546 53.646 25.546C56.0547 25.546 58.4177 25.7248 60.7197 26.0686Z" fill="white"/>
<path d="M60.7197 26.0686L59.9811 31.0137L63.3355 31.5148L65.0413 28.5833L60.7197 26.0686ZM151.311 26.0685L146.99 28.5833L148.695 31.5147L152.05 31.0137L151.311 26.0685ZM196.279 84.4984L192.021 81.8768L189.301 86.2942L193.816 88.8497L196.279 84.4984ZM197.352 167.778L194.762 163.501L189.64 166.602L193.606 171.089L197.352 167.778ZM145.099 241.942L147.673 237.656L143.442 235.116L140.846 239.312L145.099 241.942ZM77.108 247.609L80.9232 244.377L78.0737 241.013L74.3795 243.419L77.108 247.609ZM20.3553 178.296L24.4427 181.176L27.1923 177.273L23.421 174.346L20.3553 178.296ZM18.7374 88.7006L21.9871 92.5004L25.6939 89.3304L22.6167 85.5461L18.7374 88.7006ZM65.0413 28.5833C73.2541 14.4695 88.5318 5 106.015 5V-5C84.8271 -5 66.3279 6.48935 56.3981 23.5539L65.0413 28.5833ZM106.015 5C123.499 5 138.777 14.4694 146.99 28.5833L155.633 23.5538C145.703 6.48933 127.204 -5 106.015 -5V5ZM152.05 31.0137C154.108 30.7063 156.224 30.546 158.385 30.546V20.546C155.728 20.546 153.119 20.7431 150.573 21.1234L152.05 31.0137ZM158.385 30.546C180.052 30.546 196.813 46.4598 196.813 65.1421H206.813C206.813 40.0877 184.686 20.546 158.385 20.546V30.546ZM196.813 65.1421C196.813 71.2001 195.085 76.9011 192.021 81.8768L200.536 87.1201C204.521 80.6495 206.813 73.1452 206.813 65.1421H196.813ZM193.816 88.8497C206.094 95.8 214.695 109.929 214.695 126.452H224.695C224.695 106.482 214.29 88.9481 198.742 80.1472L193.816 88.8497ZM214.695 126.452C214.695 142.545 206.536 156.372 194.762 163.501L199.942 172.055C214.822 163.045 224.695 145.908 224.695 126.452H214.695ZM193.606 171.089C200.303 178.667 204.477 189.033 204.477 200.535H214.477C214.477 186.602 209.418 173.879 201.098 164.467L193.606 171.089ZM204.477 200.535C204.477 224.281 186.882 242.795 166.049 242.795V252.795C193.184 252.795 214.477 228.991 214.477 200.535H204.477ZM166.049 242.795C159.401 242.795 153.145 240.941 147.673 237.656L142.525 246.229C149.477 250.403 157.502 252.795 166.049 252.795V242.795ZM140.846 239.312C133.85 250.622 122.134 257.845 109.046 257.845V267.845C125.992 267.845 140.749 258.479 149.351 244.573L140.846 239.312ZM109.046 257.845C98.0248 257.845 88.003 252.735 80.9232 244.377L73.2929 250.841C82.0842 261.219 94.8057 267.845 109.046 267.845V257.845ZM74.3795 243.419C68.6363 247.159 61.9602 249.286 54.8399 249.286V259.286C63.9995 259.286 72.5571 256.539 79.8365 251.799L74.3795 243.419ZM54.8399 249.286C34.0063 249.286 16.4119 230.772 16.4119 207.026H6.41189C6.41189 235.482 27.7042 259.286 54.8399 259.286V249.286ZM16.4119 207.026C16.4119 197.252 19.4254 188.297 24.4427 181.176L16.2679 175.416C10.066 184.219 6.41189 195.185 6.41189 207.026H16.4119ZM23.421 174.346C12.5641 165.919 5 150.651 5 132.839H-5C-5 153.338 3.69114 171.691 17.2896 182.246L23.421 174.346ZM5 132.839C5 115.834 11.8982 101.129 21.9871 92.5004L15.4876 84.9007C2.93354 95.6372 -5 113.248 -5 132.839H5ZM22.6167 85.5461C17.9352 79.7888 15.218 72.7361 15.218 65.1421H5.218C5.218 75.1974 8.8332 84.4457 14.858 91.855L22.6167 85.5461ZM15.218 65.1421C15.218 46.4598 31.9781 30.546 53.646 30.546V20.546C27.3447 20.546 5.218 40.0877 5.218 65.1421H15.218ZM53.646 30.546C55.8071 30.546 57.9232 30.7064 59.9811 31.0137L61.4583 21.1234C58.9122 20.7432 56.3024 20.546 53.646 20.546V30.546Z" fill="black" mask="url(#path-3-inside-1_28_70)"/>
<circle cx="86.521" cy="89.0442" r="8.07354" fill="black"/>
<circle cx="130.776" cy="89.0442" r="8.07354" fill="black"/>
<path d="M88.6143 72.0001C84.5648 77.7864 81.1524 79.7083 72.8246 80.7955" stroke="black" stroke-width="3" stroke-linecap="round"/>
<path d="M125.095 72.4263C129.946 77.5589 133.603 78.9616 142 78.8203" stroke="black" stroke-width="3" stroke-linecap="round"/>
<path d="M144 49.6045C158.036 26.1157 188.448 58.0604 151.018 59" stroke="black" stroke-width="5" stroke-linecap="round"/>
<path d="M70 49.6045C55.9637 26.1157 25.5516 58.0604 62.9818 59" stroke="black" stroke-width="5" stroke-linecap="round"/>
<path d="M118 103C118 103 113.75 107.125 109.5 108.5M109.5 108.5C105.25 107.125 101 103 101 103M109.5 108.5C102.57 122.149 101 125 101 125C109.5 124.483 112.19 124.483 118 124.094C115.797 119.815 114.194 116.702 109.5 108.5Z" stroke="black" stroke-width="3" stroke-linecap="round" stroke-linejoin="round"/>
<rect x="54.1274" y="148.321" width="32.6852" height="13.4102" rx="6.70511" transform="rotate(-44.045 54.1274 148.321)" fill="black" stroke="black" stroke-width="3"/>
<mask id="mask0_28_70" style="mask-type:alpha" maskUnits="userSpaceOnUse" x="39" y="121" width="52" height="49">
<rect width="27.3148" height="43.5177" transform="matrix(0.687633 -0.726058 0.760647 0.649166 39.0579 141.301)" fill="#D9D9D9"/>
</mask>
<g mask="url(#mask0_28_70)">
<path d="M71.9728 145.597C75.0875 151.385 72.585 159.014 66.0331 162.54C59.4811 166.066 51.7352 163.952 48.6205 158.165C45.5057 152.377 48.0082 144.748 54.5602 141.222C61.1121 137.696 68.8581 139.81 71.9728 145.597Z" fill="white" stroke="black" stroke-width="3" stroke-linejoin="round"/>
</g>
<rect x="-2.12103" y="0.0353577" width="32.6852" height="13.4102" rx="6.70511" transform="matrix(-0.718794 -0.695223 -0.695223 0.718794 162.373 146.821)" fill="black" stroke="black" stroke-width="3"/>
<mask id="mask1_28_70" style="mask-type:alpha" maskUnits="userSpaceOnUse" x="127" y="121" width="52" height="49">
<rect width="27.3148" height="43.5177" transform="matrix(-0.687633 -0.726058 -0.760647 0.649166 178.942 141.301)" fill="#D9D9D9"/>
</mask>
<g mask="url(#mask1_28_70)">
<path d="M146.027 145.597C142.912 151.385 145.415 159.014 151.967 162.54C158.519 166.066 166.265 163.952 169.38 158.165C172.494 152.377 169.992 144.748 163.44 141.222C156.888 137.696 149.142 139.81 146.027 145.597Z" fill="white" stroke="black" stroke-width="3" stroke-linejoin="round"/>
</g>
</svg>
