<svg width="77" height="106" viewBox="0 0 77 106" fill="none" xmlns="http://www.w3.org/2000/svg">
<rect x="63.1549" y="76.8004" width="24.4338" height="7.17392" rx="3.58696" transform="rotate(57.5476 63.1549 76.8004)" fill="black" stroke="white"/>
<mask id="path-2-inside-1_3_107" fill="white">
<path fill-rule="evenodd" clip-rule="evenodd" d="M21.9592 86.2865C23.4104 84.5577 23.1853 81.9798 21.4565 80.5286C19.7277 79.0774 17.1498 79.3024 15.6986 81.0313L7.10466 91.2691C6.36172 92.1542 6.05811 93.2618 6.17068 94.3269C6.14514 95.3896 6.53167 96.4613 7.33329 97.2817L13.8225 103.923C15.4 105.537 17.9875 105.567 19.602 103.99C21.2164 102.412 21.2463 99.8248 19.6689 98.2103L15.5169 93.9612L21.9592 86.2865Z"/>
</mask>
<path fill-rule="evenodd" clip-rule="evenodd" d="M21.9592 86.2865C23.4104 84.5577 23.1853 81.9798 21.4565 80.5286C19.7277 79.0774 17.1498 79.3024 15.6986 81.0313L7.10466 91.2691C6.36172 92.1542 6.05811 93.2618 6.17068 94.3269C6.14514 95.3896 6.53167 96.4613 7.33329 97.2817L13.8225 103.923C15.4 105.537 17.9875 105.567 19.602 103.99C21.2164 102.412 21.2463 99.8248 19.6689 98.2103L15.5169 93.9612L21.9592 86.2865Z" fill="black"/>
<path d="M21.4565 80.5286L20.8136 81.2945L20.8136 81.2945L21.4565 80.5286ZM21.9592 86.2865L22.7251 86.9295L22.7251 86.9295L21.9592 86.2865ZM15.6986 81.0313L16.4645 81.6742L16.4645 81.6742L15.6986 81.0313ZM7.10466 91.2691L6.33874 90.6262L6.33874 90.6262L7.10466 91.2691ZM6.17068 94.3269L7.17039 94.3509L7.17195 94.2862L7.16514 94.2217L6.17068 94.3269ZM7.33329 97.2817L8.04853 96.5828L8.04853 96.5828L7.33329 97.2817ZM13.8225 103.923L13.1073 104.622L13.1073 104.622L13.8225 103.923ZM19.6689 98.2103L20.3841 97.5115L20.3841 97.5115L19.6689 98.2103ZM15.5169 93.9612L14.751 93.3182L14.1686 94.0121L14.8017 94.66L15.5169 93.9612ZM20.8136 81.2945C22.1194 82.3906 22.2894 84.3378 21.1932 85.6436L22.7251 86.9295C24.5314 84.7776 24.2513 81.569 22.0994 79.7627L20.8136 81.2945ZM16.4645 81.6742C17.5606 80.3684 19.5078 80.1984 20.8136 81.2945L22.0994 79.7627C19.9476 77.9564 16.7389 78.2365 14.9327 80.3883L16.4645 81.6742ZM7.87058 91.9121L16.4645 81.6742L14.9327 80.3883L6.33874 90.6262L7.87058 91.9121ZM7.16514 94.2217C7.07993 93.4156 7.30932 92.5807 7.87058 91.9121L6.33874 90.6262C5.41411 91.7277 5.03628 93.1081 5.17622 94.432L7.16514 94.2217ZM8.04853 96.5828C7.44292 95.963 7.15106 95.1553 7.17039 94.3509L5.17097 94.3028C5.13922 95.6239 5.62042 96.9596 6.61804 97.9805L8.04853 96.5828ZM14.5378 103.224L8.04853 96.5828L6.61804 97.9805L13.1073 104.622L14.5378 103.224ZM18.9031 103.275C17.6837 104.466 15.7293 104.443 14.5378 103.224L13.1073 104.622C15.0707 106.631 18.2914 106.668 20.3008 104.705L18.9031 103.275ZM18.9536 98.9092C20.1451 100.129 20.1225 102.083 18.9031 103.275L20.3008 104.705C22.3103 102.742 22.3476 99.5209 20.3841 97.5115L18.9536 98.9092ZM14.8017 94.66L18.9536 98.9092L20.3841 97.5115L16.2322 93.2623L14.8017 94.66ZM21.1932 85.6436L14.751 93.3182L16.2828 94.6041L22.7251 86.9295L21.1932 85.6436Z" fill="white" mask="url(#path-2-inside-1_3_107)"/>
<path fill-rule="evenodd" clip-rule="evenodd" d="M53.0364 9.13734C53.8433 9.01684 54.6714 8.95417 55.5157 8.95417C63.9226 8.95417 70.7377 15.168 70.7377 22.8331C70.7377 25.2974 70.0333 27.6117 68.798 29.6177C73.6748 32.3782 77.0055 37.9274 77.0055 44.3231C77.0055 50.553 73.8453 55.9796 69.1742 58.8081C71.806 61.7858 73.424 65.8323 73.424 70.29C73.424 79.4387 66.6088 86.8551 58.2019 86.8551C55.5392 86.8551 53.0362 86.1111 50.8588 84.8037C48.1251 89.2231 43.4856 92.1303 38.222 92.1303C33.7947 92.1303 29.8088 90.0734 27.0273 86.7898C24.745 88.2761 22.0752 89.1303 19.222 89.1303C10.8151 89.1303 4 81.7138 4 72.5652C4 68.7769 5.16855 65.2856 7.13478 62.4949C2.84882 59.1683 0 53.2759 0 46.5616C0 40.148 2.59936 34.4844 6.56771 31.0906C4.69139 28.783 3.58161 25.9262 3.58161 22.8331C3.58161 15.168 10.3967 8.95417 18.8036 8.95417C19.6479 8.95417 20.4761 9.01684 21.283 9.13736C24.4626 3.67316 30.3822 0 37.1597 0C43.9372 0 49.8568 3.67315 53.0364 9.13734Z" fill="white"/>
<path d="M52.0106 41.6973L72.3384 45.4503C73.8637 45.7319 74.8482 47.2263 74.5049 48.7389C74.1966 50.0977 72.9144 51.0062 71.5302 50.8467L64.5893 50.0468C64.2847 50.9083 63.5981 52.7371 63.2882 53.161C62.9009 53.6909 61.9551 53.6499 60.7587 53.507C59.5623 53.3641 58.2803 52.6708 57.3266 51.9735C57.0294 51.7563 56.7644 51.8009 56.541 51.9751C55.7842 52.5649 56.2143 53.8261 55.7469 54.6641C55.3728 55.3349 54.583 55.6128 54.4987 55.8415C54.3335 56.2899 54.5575 57.4293 53.577 57.7695C52.48 58.1501 51.589 59.6082 50.486 59.2452C48.5302 58.6015 46.3622 57.883 45.7644 57.668C44.6699 57.2744 48.0789 52.6116 50.2687 49.1714C50.905 48.1719 51.0862 47.4388 51.0077 46.9094C50.8264 45.6861 49.4397 44.5703 49.6461 43.351C49.8347 42.2365 50.8991 41.4921 52.0106 41.6973Z" fill="black" stroke="black"/>
<path d="M23 18.0689C17.6276 10.9515 5.98718 20.6311 20.3138 20.9158" stroke="black" stroke-linecap="round"/>
<path d="M54.3394 17.8292C59.7119 10.7119 71.3523 20.3915 57.0257 20.6762" stroke="black" stroke-linecap="round"/>
<path fill-rule="evenodd" clip-rule="evenodd" d="M36.24 28.8509L20.3137 25.1863L28.3724 33.0155L36.7548 29.3509H40.5846L48.9669 33.0155L57.0257 25.1864L41.0995 28.8509H36.24Z" fill="black"/>
<path d="M36.4312 37.2858C36.4312 37.2858 37.7743 38.3534 39.1175 38.7093M39.1175 38.7093C40.4606 38.3534 41.8037 37.2858 41.8037 37.2858M39.1175 38.7093C39.1175 40.377 39.1175 42.9797 39.1175 42.9797H36.4312C38.0728 42.7425 41.6246 42.4103 42.6991 42.9797" stroke="black" stroke-linecap="round" stroke-linejoin="round"/>
<rect x="28.7768" y="47.075" width="24.1232" height="8.93889" rx="4.46945" transform="rotate(3.24895 28.7768 47.075)" fill="black" stroke="white"/>
</svg>
